<?xml version="1.0" encoding="utf-8"?>
<!-- Generator: Adobe Illustrator 28.4.1, SVG Export Plug-In . SVG Version: 6.00 Build 0)  -->
<svg version="1.0" id="Layer_1" xmlns="http://www.w3.org/2000/svg" xmlns:xlink="http://www.w3.org/1999/xlink" x="0px" y="0px"
	 viewBox="0 0 591.1 591.1" style="enable-background:new 0 0 591.1 591.1;" xml:space="preserve">
<g>
	<g>
		<g>
			<g>
				<polygon points="159.5,466.1 159.5,431.7 152.2,431.7 152.2,445.3 138.2,445.3 138.2,431.7 130.9,431.7 130.9,466.1 
					138.2,466.1 138.2,451.4 152.2,451.4 152.2,466.1 				"/>
				<path d="M188.3,466.1v-22.9h-6.9v2.7c-1.4-1.8-4-3.3-7.1-3.3c-6.3,0-11.3,5.2-11.3,12c0,6.9,5.1,12,11.3,12
					c3.2,0,5.8-1.5,7.1-3.3v2.7H188.3z M175.7,460.7c-3.4,0-5.9-2.6-5.9-6c0-3.4,2.5-6,5.9-6c3.3,0,5.8,2.6,5.8,6
					C181.6,458.1,179.1,460.7,175.7,460.7z"/>
				<path d="M200.8,461.4c-1.6,0-3.1-1.1-3.6-3l-5.9,1.8c1,4.1,5.2,6.4,9.4,6.4c4.6,0,9-3,9-7.7c0-8.6-10.9-5.9-10.9-9.3
					c0-1.1,0.9-1.9,2.1-1.9c1.3,0,2.2,0.8,2.6,2.2l6-1.5c-1.1-3.6-4.2-5.8-8.4-5.8c-5.1,0-8.5,3.5-8.5,7.4c0,8.4,10.8,5.7,10.8,9.2
					C203.3,460.7,202.1,461.4,200.8,461.4z"/>
				<path d="M220.4,461.4c-1.6,0-3.1-1.1-3.6-3l-5.9,1.8c1,4.1,5.2,6.4,9.4,6.4c4.6,0,9-3,9-7.7c0-8.6-10.9-5.9-10.9-9.3
					c0-1.1,0.9-1.9,2.1-1.9c1.3,0,2.2,0.8,2.6,2.2l6-1.5c-1.1-3.6-4.2-5.8-8.4-5.8c-5.1,0-8.5,3.5-8.5,7.4c0,8.4,10.8,5.7,10.8,9.2
					C222.9,460.7,221.8,461.4,220.4,461.4z"/>
				<path d="M243.8,466.7c6.7,0,12.3-5.1,12.3-12c0-6.9-5.7-12-12.3-12c-6.7,0-12.4,5.1-12.4,12
					C231.5,461.5,237.2,466.7,243.8,466.7z M243.8,448.6c3.3,0,5.8,2.6,5.8,6c0,3.4-2.5,6-5.8,6c-3.4,0-5.9-2.6-5.9-6
					C237.9,451.2,240.5,448.6,243.8,448.6z"/>
				<path d="M278,453.4h3.2c7.4,0,12.7-4.1,12.7-10.8c0-6.8-5.3-10.9-12.7-10.9h-10.5v34.4h7.4V453.4z M278,437.7h3
					c3.2,0,5.6,1.6,5.6,4.8c0,3.2-2.3,4.8-5.6,4.8h-3V437.7z"/>
				<rect x="297.4" y="429.3" width="6.9" height="36.8"/>
				<path d="M333.6,466.1v-22.9h-6.9v2.7c-1.4-1.8-4-3.3-7.1-3.3c-6.3,0-11.3,5.2-11.3,12c0,6.9,5.1,12,11.3,12
					c3.2,0,5.8-1.5,7.1-3.3v2.7H333.6z M321,460.7c-3.4,0-5.9-2.6-5.9-6c0-3.4,2.5-6,5.9-6c3.3,0,5.8,2.6,5.8,6
					C326.8,458.1,324.3,460.7,321,460.7z"/>
				<polygon points="366.5,443.2 361.9,443.2 361.9,435.7 355,435.7 355,443.2 347.5,443.2 347.5,435.7 340.5,435.7 340.5,443.2 
					337,443.2 337,449.2 340.5,449.2 340.5,466.1 347.5,466.1 347.5,449.2 355,449.2 355,466.1 361.9,466.1 361.9,449.2 
					366.5,449.2 				"/>
				<path d="M376.6,453.5c0-2.7,1.6-4.7,4.1-4.7c2.5,0,3.8,1.7,3.8,4.1v13.2h6.9V451c0-5-3.2-8.4-8.2-8.4c-3,0-5.3,1.4-6.7,3.2v-2.6
					h-6.9v22.9h6.9V453.5z"/>
				<path d="M406.8,442.6c-6.3,0-11.8,5.1-11.8,12c0,6.9,5.5,12,12,12c4.4,0,8.2-2,10.4-5.6l-4.9-3.4c-1.3,2.1-2.8,3.3-5.5,3.3
					c-2.6,0-4.9-1.6-5.6-4.5h16.9C418.7,448.6,414.3,442.6,406.8,442.6z M401.7,452.2c0.8-2.5,2.9-3.9,5.2-3.9c3,0,4.5,2,4.8,3.9
					H401.7z"/>
				<rect x="422.2" y="443.2" width="6.9" height="22.9"/>
				<path style="fill:#FF0000;" d="M434.7,451.2c2.3,0,4.3-1.9,4.3-4.2c0-2.4-2-4.2-4.3-4.2c-2.3,0-4.3,1.9-4.3,4.2
					C430.4,449.3,432.4,451.2,434.7,451.2z"/>
			</g>
			<g>
				<rect x="95.5" y="482.2" width="7.4" height="34.4"/>
				<path d="M121.5,493.2c-3,0-5.3,1.4-6.7,3.2v-2.6h-6.9v22.9h6.9v-12.6c0-2.7,1.6-4.7,4.1-4.7c2.5,0,3.8,1.7,3.8,4.1v13.2h6.9
					v-15.1C129.7,496.6,126.5,493.2,121.5,493.2z"/>
				<path d="M140.1,500.2c0-1.1,0.9-1.9,2.1-1.9c1.3,0,2.2,0.8,2.6,2.2l6-1.5c-1.1-3.6-4.2-5.8-8.4-5.8c-5.1,0-8.5,3.5-8.5,7.4
					c0,8.4,10.8,5.7,10.8,9.2c0,1.4-1.1,2.1-2.5,2.1c-1.6,0-3.1-1.1-3.6-3l-5.9,1.8c1,4.1,5.2,6.4,9.4,6.4c4.6,0,9-3,9-7.7
					C151,500.9,140.1,503.6,140.1,500.2z"/>
				<polygon points="163.1,486.3 156.2,486.3 156.2,493.7 152.7,493.7 152.7,499.7 156.2,499.7 156.2,516.7 163.1,516.7 
					163.1,499.7 167.7,499.7 167.7,493.7 163.1,493.7 				"/>
				<path d="M174.4,481.9c-2.3,0-4.2,1.8-4.2,4.1c0,2.3,1.9,4.1,4.2,4.1c2.2,0,4.1-1.8,4.1-4.1C178.5,483.7,176.6,481.9,174.4,481.9
					z"/>
				<rect x="170.9" y="493.7" width="6.9" height="22.9"/>
				<polygon points="191.7,486.3 184.8,486.3 184.8,493.7 181.3,493.7 181.3,499.7 184.8,499.7 184.8,516.7 191.7,516.7 
					191.7,499.7 196.3,499.7 196.3,493.7 191.7,493.7 				"/>
				<path d="M213.4,507c0,2.7-1.4,4.3-3.7,4.3c-2.4,0-3.7-1.6-3.7-4.3v-13.2H199v13.4c0,5.9,4.5,10,10.7,10c6.2,0,10.6-4.1,10.6-10
					v-13.5h-6.9V507z"/>
				<polygon points="233.8,486.3 226.9,486.3 226.9,493.7 223.4,493.7 223.4,499.7 226.9,499.7 226.9,516.7 233.8,516.7 
					233.8,499.7 238.4,499.7 238.4,493.7 233.8,493.7 				"/>
				<path d="M251.9,493.2c-6.3,0-11.8,5.1-11.8,12c0,6.9,5.5,12,12,12c4.4,0,8.2-2,10.4-5.6l-4.9-3.4c-1.3,2.1-2.8,3.3-5.5,3.3
					c-2.6,0-4.9-1.6-5.6-4.5h16.9C263.8,499.1,259.4,493.2,251.9,493.2z M246.7,502.7c0.8-2.5,2.9-3.9,5.2-3.9c3,0,4.5,2,4.8,3.9
					H246.7z"/>
				<path d="M288.3,493.2c-6.7,0-12.4,5.1-12.4,12c0,6.9,5.7,12,12.4,12c6.7,0,12.3-5.1,12.3-12C300.6,498.3,295,493.2,288.3,493.2z
					 M288.3,511.2c-3.4,0-5.9-2.6-5.9-6c0-3.4,2.5-6,5.9-6c3.3,0,5.8,2.6,5.8,6C294.1,508.6,291.6,511.2,288.3,511.2z"/>
				<path d="M306,488.2v5.6h-3.3v6h3.3v16.9h6.9v-16.9h5.1v-6H313v-5.2c0-2.1,1.3-3.2,3.2-3.2c0.8,0,1.5,0.1,2.1,0.5V480
					c-0.9-0.4-2-0.5-3.4-0.5C309.5,479.4,306,482.8,306,488.2z"/>
				<path d="M343,482.2h-10.9v34.4H343c10.2,0,18.2-7.3,18.2-17.2C361.2,489.5,353.2,482.2,343,482.2z M342.5,510.5h-3.1v-22.2h3.1
					c6.6,0,11.2,4.8,11.2,11.1S349.2,510.5,342.5,510.5z"/>
				<path d="M375.5,493.2c-6.3,0-11.8,5.1-11.8,12c0,6.9,5.5,12,12,12c4.4,0,8.2-2,10.4-5.6l-4.9-3.4c-1.3,2.1-2.8,3.3-5.5,3.3
					c-2.6,0-4.9-1.6-5.6-4.5h16.9C387.4,499.1,383,493.2,375.5,493.2z M370.3,502.7c0.8-2.5,2.9-3.9,5.2-3.9c3,0,4.5,2,4.8,3.9
					H370.3z"/>
				<path d="M396,500.2c0-1.1,0.9-1.9,2.1-1.9c1.3,0,2.2,0.8,2.6,2.2l6-1.5c-1.1-3.6-4.2-5.8-8.4-5.8c-5.1,0-8.5,3.5-8.5,7.4
					c0,8.4,10.8,5.7,10.8,9.2c0,1.4-1.1,2.1-2.5,2.1c-1.6,0-3.1-1.1-3.6-3l-5.9,1.8c1,4.1,5.2,6.4,9.4,6.4c4.6,0,9-3,9-7.7
					C406.9,500.9,396,503.6,396,500.2z"/>
				<path d="M414,481.9c-2.3,0-4.2,1.8-4.2,4.1c0,2.3,1.9,4.1,4.2,4.1c2.2,0,4.1-1.8,4.1-4.1C418.1,483.7,416.2,481.9,414,481.9z"/>
				<rect x="410.5" y="493.7" width="6.9" height="22.9"/>
				<path d="M438.8,496.5c-1.4-1.8-4-3.3-7.1-3.3c-6.3,0-11.3,5.2-11.3,12c0,6.9,5.1,12,11.3,12c3.2,0,5.8-1.5,7.1-3.3v2.9
					c0,4-2.5,6.1-5.7,6.1c-3,0-5.1-1.7-5.4-4.5h-6.9c0.3,6.3,5.7,10.1,12.1,10.1c6.8,0,12.7-4.6,12.7-12.1v-22.8h-6.9V496.5z
					 M433.1,511.2c-3.4,0-5.9-2.6-5.9-6c0-3.4,2.5-6,5.9-6c3.3,0,5.8,2.6,5.8,6C439,508.6,436.5,511.2,433.1,511.2z"/>
				<path d="M463.8,493.2c-3,0-5.3,1.4-6.7,3.2v-2.6h-6.9v22.9h6.9v-12.6c0-2.7,1.6-4.7,4.1-4.7c2.5,0,3.8,1.7,3.8,4.1v13.2h6.9
					v-15.1C472,496.6,468.9,493.2,463.8,493.2z"/>
			</g>
		</g>
		<g>
			<path d="M236.3,556.5c0-12.4-16.3-8.4-16.3-14.4c0-2.3,1.7-3.7,4-3.7c2.4,0,3.9,1.7,4.6,3.7l6.8-2.5c-1.5-4.5-5.7-7.4-11.1-7.4
				c-6.9,0-11.4,4.8-11.4,10.4c0,12.1,16.2,7.7,16.2,14.2c0,2.8-2.2,4.6-5.1,4.6c-3.1,0-5.4-2.1-6.2-5.4l-6.9,2.2
				c1.3,5.8,6.4,9.5,12.8,9.5C230.6,567.8,236.3,563,236.3,556.5z"/>
			<polygon points="252.8,544.3 248.2,544.3 248.2,536.9 241.2,536.9 241.2,544.3 237.7,544.3 237.7,550.3 241.2,550.3 241.2,567.2 
				248.2,567.2 248.2,550.3 252.8,550.3 			"/>
			<path d="M272.9,547c-1.4-1.8-4-3.3-7.1-3.3c-6.3,0-11.3,5.2-11.3,12c0,6.9,5.1,12,11.3,12c3.2,0,5.8-1.5,7.1-3.3v2.7h6.9v-22.9
				h-6.9V547z M267.2,561.8c-3.4,0-5.9-2.6-5.9-6c0-3.4,2.5-6,5.9-6c3.3,0,5.8,2.6,5.8,6C273,559.2,270.5,561.8,267.2,561.8z"/>
			<polygon points="198.4,544.3 193.8,544.3 193.8,536.9 186.9,536.9 186.9,544.3 183.4,544.3 183.4,550.3 186.9,550.3 186.9,567.2 
				193.8,567.2 193.8,550.3 198.4,550.3 			"/>
			<path d="M173.5,547c-1.4-1.8-4-3.3-7.1-3.3c-6.3,0-11.3,5.2-11.3,12c0,6.9,5.1,12,11.3,12c3.2,0,5.8-1.5,7.1-3.3v2.7h6.9v-22.9
				h-6.9V547z M167.8,561.8c-3.4,0-5.9-2.6-5.9-6c0-3.4,2.5-6,5.9-6c3.3,0,5.8,2.6,5.8,6C173.7,559.2,171.2,561.8,167.8,561.8z"/>
			<path d="M306.1,567.2v-15.1c0-5-3.2-8.4-8.2-8.4c-3,0-5.3,1.4-6.7,3.2v-2.6h-6.9v22.9h6.9v-12.6c0-2.7,1.6-4.7,4.1-4.7
				c2.5,0,3.8,1.7,3.8,4.1v13.2H306.1z"/>
			<path d="M312.4,538.7v5.6H309v6h3.3v16.9h6.9v-16.9h5.1v-6h-5.1v-5.2c0-2.1,1.3-3.2,3.2-3.2c0.8,0,1.5,0.1,2.1,0.5v-5.9
				c-0.9-0.4-2-0.5-3.4-0.5C315.8,530,312.4,533.4,312.4,538.7z"/>
			<path d="M338.2,567.8c6.7,0,12.3-5.1,12.3-12c0-6.9-5.7-12-12.3-12c-6.7,0-12.4,5.1-12.4,12C325.8,562.7,331.5,567.8,338.2,567.8
				z M338.2,549.7c3.3,0,5.8,2.6,5.8,6c0,3.4-2.5,6-5.8,6c-3.4,0-5.9-2.6-5.9-6C332.3,552.3,334.8,549.7,338.2,549.7z"/>
			<rect x="353.5" y="544.3" width="6.9" height="22.9"/>
			<path style="fill:#FF0000;" d="M366,552.3c2.3,0,4.3-1.9,4.3-4.2s-2-4.2-4.3-4.2c-2.3,0-4.3,1.9-4.3,4.2S363.6,552.3,366,552.3z"
				/>
			<path d="M390.4,530.4V547c-1.3-1.8-3.9-3.3-7.1-3.3c-6.3,0-11.3,5.2-11.3,12c0,6.9,5.1,12,11.3,12c3.2,0,5.8-1.5,7.1-3.3v2.7h6.9
				v-36.8H390.4z M384.7,561.8c-3.3,0-5.8-2.6-5.8-6c0-3.4,2.5-6,5.8-6c3.4,0,5.9,2.6,5.9,6C390.6,559.2,388.1,561.8,384.7,561.8z"
				/>
		</g>
	</g>
</g>
</svg>
