<?xml version="1.0" encoding="utf-8"?>
<!-- Generator: Adobe Illustrator 28.4.1, SVG Export Plug-In . SVG Version: 6.00 Build 0)  -->
<svg version="1.0" id="Layer_1" xmlns="http://www.w3.org/2000/svg" xmlns:xlink="http://www.w3.org/1999/xlink" x="0px" y="0px"
	 viewBox="0 0 591.1 591.1" style="enable-background:new 0 0 591.1 591.1;" xml:space="preserve">
<path d="M283.1,118.6v131.7c-10.4-4.7-26.1-8.5-41.8-8.5c-65,0-122.9,52.7-122.9,125.8c0,52.7,33.2,102.1,88.3,102.1
	c32.3,0,57-19,71.7-38.9h4.7v38.6l80.7-18.2V96.8L283.1,118.6z M283.1,421.2c-4.3,1.9-9.5,2.8-15.2,2.8c-39.4,0-70.3-29-70.3-85
	c0-43.7,20.4-75.9,50.8-75.9c17.1,0,29,12.3,34.7,26.6V421.2z"/>
</svg>
