<?xml version="1.0" encoding="UTF-8"?>
<svg id="Layer_1" data-name="Layer 1" xmlns="http://www.w3.org/2000/svg" version="1.1" viewBox="0 0 591.1 591.1">
  <path d="M313.4,412.2v50.2s19.9-4.5,19.9-4.5V105l-19.9,5.4v135c-15-7.8-32.5-11.9-50.8-11.9-31.2,0-60.2,12.2-81.9,34.4-21.9,22.5-34,53.1-34,86.2,0,57.3,38.2,98.9,90.9,98.9s43.2-8.9,62.2-27.2l13.5-13.6ZM166.2,345.6c0-29.8,9.2-54.9,26.7-72.5,16.5-16.6,39.9-25.8,66-25.8s44.2,8.3,54.5,22.7v137.5c-15.9,18-39.7,28.4-65.4,28.4-48.9,0-81.8-36.3-81.8-90.3Z" style="fill: #fff; stroke-width: 0px;"/>
</svg>