<?xml version="1.0" encoding="UTF-8"?>
<svg id="Layer_1" data-name="Layer 1" xmlns="http://www.w3.org/2000/svg" version="1.1" viewBox="0 0 591.1 591.1">
  <path d="M343.1,102.4l-18.4,147c-14-7.8-31-11.9-49.3-11.9-31.2,0-61.8,12.2-86.2,34.4-24.7,22.5-40.6,53.1-44.8,86.2-7.2,57.3,25.8,98.9,78.5,98.9s44.3-8.9,65.7-27.2l15.2-13.6-6.3,50.3,20.5-4.3,45.9-365.5-20.6,5.6ZM304.3,411.5c-18.2,18-43.3,28.4-68.9,28.4-48.9,0-77.3-36.3-70.5-90.3,3.7-29.8,16.1-54.9,35.8-72.5,18.5-16.6,43.1-25.8,69.2-25.8s43.2,8.3,51.7,22.7l-17.3,137.5Z" style="fill: #fff; stroke-width: 0px;"/>
</svg>