<?xml version="1.0" encoding="utf-8"?>
<!-- Generator: Adobe Illustrator 28.4.1, SVG Export Plug-In . SVG Version: 6.00 Build 0)  -->
<svg version="1.0" id="Layer_1" xmlns="http://www.w3.org/2000/svg" xmlns:xlink="http://www.w3.org/1999/xlink" x="0px" y="0px"
	 viewBox="0 0 591.1 591.1" style="enable-background:new 0 0 591.1 591.1;" xml:space="preserve">
<path d="M313.4,412.2l0,50.2l19.9-4.5V105l-19.9,5.4v135c-15-7.8-32.5-11.9-50.8-11.9c-31.2,0-60.2,12.2-81.9,34.4
	c-21.9,22.5-34,53.1-34,86.2c0,57.3,38.2,98.9,90.9,98.9c22.9,0,43.2-8.9,62.2-27.2L313.4,412.2z M166.2,345.6
	c0-29.8,9.2-54.9,26.7-72.5c16.5-16.6,39.9-25.8,66-25.8c24.3,0,44.2,8.3,54.5,22.7v137.5c-15.9,18-39.7,28.4-65.4,28.4
	C199.1,435.9,166.2,399.6,166.2,345.6z"/>
</svg>
