<?xml version="1.0" encoding="utf-8"?>
<!-- Generator: Adobe Illustrator 28.6.0, SVG Export Plug-In . SVG Version: 9.03 Build 54939)  -->
<svg version="1.0" id="Layer_1" xmlns="http://www.w3.org/2000/svg" xmlns:xlink="http://www.w3.org/1999/xlink" x="0px" y="0px"
	 viewBox="0 0 591.1 591.1" style="enable-background:new 0 0 591.1 591.1;" xml:space="preserve">
<path d="M343.1,102.4l-18.4,147c-14-7.8-31-11.9-49.3-11.9c-31.2,0-61.8,12.2-86.2,34.4c-24.7,22.5-40.6,53.1-44.8,86.2
	c-7.2,57.3,25.8,98.9,78.5,98.9c22.9,0,44.3-8.9,65.7-27.2l15.2-13.6l-6.3,50.3l20.5-4.3l45.9-365.5L343.1,102.4z M304.3,411.5
	c-18.2,18-43.3,28.4-68.9,28.4c-48.9,0-77.3-36.3-70.5-90.3c3.7-29.8,16.1-54.9,35.8-72.5c18.5-16.6,43.1-25.8,69.2-25.8
	c24.3,0,43.2,8.3,51.7,22.7L304.3,411.5z"/>
</svg>
