<?xml version="1.0" encoding="utf-8"?>
<!-- Generator: Adobe Illustrator 28.4.1, SVG Export Plug-In . SVG Version: 6.00 Build 0)  -->
<svg version="1.0" xmlns="http://www.w3.org/2000/svg" xmlns:xlink="http://www.w3.org/1999/xlink" x="0px" y="0px"
	 viewBox="0 0 591.1 591.1" style="enable-background:new 0 0 591.1 591.1;" xml:space="preserve">
<g id="material" style="display:none;">
</g>
<g id="wordMark_x5F_B" style="display:none;">
	<path style="display:inline;" d="M201.5,463.4c0-17.2-22.6-11.6-22.6-19.9c0-3.2,2.4-5.1,5.5-5.1c3.4,0,5.4,2.3,6.3,5.1l9.4-3.5
		c-2.1-6.2-7.9-10.2-15.3-10.2c-9.5,0-15.8,6.7-15.8,14.4c0,16.7,22.4,10.6,22.4,19.8c0,3.9-3,6.4-7.1,6.4c-4.3,0-7.5-3-8.5-7.5
		l-9.5,3c1.8,8,8.9,13.2,17.7,13.2C193.7,479,201.5,472.4,201.5,463.4z"/>
	<polygon style="display:inline;" points="224.4,446.5 218,446.5 218,436.1 208.4,436.1 208.4,446.5 203.6,446.5 203.6,454.8 
		208.4,454.8 208.4,478.3 218,478.3 218,454.8 224.4,454.8 	"/>
	<path style="display:inline;" d="M252.3,450.3c-1.9-2.5-5.5-4.6-9.9-4.6c-8.7,0-15.7,7.2-15.7,16.7s7,16.7,15.7,16.7
		c4.4,0,8-2.1,9.9-4.6v3.8h9.6v-31.8h-9.6V450.3z M244.4,470.7c-4.7,0-8.2-3.6-8.2-8.4s3.5-8.4,8.2-8.4c4.6,0,8.1,3.6,8.1,8.4
		S249,470.7,244.4,470.7z"/>
	<path style="display:inline;" d="M298.3,478.3v-20.9c0-6.9-4.4-11.7-11.4-11.7c-4.2,0-7.3,2-9.2,4.4v-3.7h-9.6v31.8h9.6v-17.5
		c0-3.7,2.2-6.5,5.7-6.5c3.4,0,5.3,2.4,5.3,5.7v18.2h9.6V478.3z"/>
	<path style="display:inline;" d="M307,438.7v7.7h-4.6v8.3h4.6v23.5h9.6v-23.5h7.1v-8.3h-7.1v-7.2c0-2.9,1.8-4.4,4.4-4.4
		c1.1,0,2,0.2,3,0.6v-8.2c-1.2-0.5-2.8-0.8-4.8-0.8C311.9,426.6,307,431.3,307,438.7z"/>
	<path style="display:inline;" d="M342.8,479c9.2,0,17.1-7.1,17.1-16.7s-7.9-16.7-17.1-16.7s-17.2,7.1-17.2,16.7
		C325.7,471.9,333.6,479,342.8,479z M342.8,454c4.6,0,8.1,3.6,8.1,8.4c0,4.7-3.5,8.4-8.1,8.4c-4.7,0-8.2-3.6-8.2-8.4
		C334.7,457.6,338.1,454,342.8,454z"/>
	<rect x="364" y="446.5" style="display:inline;" width="9.6" height="31.8"/>
	<path style="display:inline;" d="M415.3,427.2v23.1c-1.8-2.5-5.4-4.6-9.8-4.6c-8.7,0-15.7,7.2-15.7,16.7s7,16.7,15.7,16.7
		c4.4,0,8-2.1,9.8-4.6v3.8h9.6v-51h-9.6V427.2z M407.4,470.7c-4.6,0-8.1-3.6-8.1-8.4s3.5-8.4,8.1-8.4c4.7,0,8.2,3.6,8.2,8.4
		S412.1,470.7,407.4,470.7z"/>
	<path style="display:inline;" d="M208.3,515c-1.8-2.5-5.4-4.6-9.8-4.6c-8.7,0-15.7,7.2-15.7,16.7s7,16.7,15.7,16.7
		c4.4,0,8-2.1,9.8-4.6v3.8h9.6v-51h-9.6V515z M200.4,535.5c-4.6,0-8.1-3.6-8.1-8.4c0-4.8,3.5-8.4,8.1-8.4c4.7,0,8.2,3.6,8.2,8.4
		C208.6,531.8,205.1,535.5,200.4,535.5z"/>
	<path style="display:inline;fill:#FFD600;" d="M227,531.2c-3.5,0-6.2,2.7-6.2,6.1c0,3.5,2.7,6.2,6.2,6.2s6.2-2.7,6.2-6.2
		S230.4,531.2,227,531.2z"/>
	<path style="display:inline;" d="M246.6,520.2c0-1.5,1.3-2.6,2.9-2.6c1.8,0,3,1.1,3.5,3l8.3-2.1c-1.5-4.9-5.9-8.1-11.7-8.1
		c-7,0-11.8,4.8-11.8,10.3c0,11.7,15,7.9,15,12.8c0,2-1.6,3-3.5,3c-2.3,0-4.2-1.5-5-4.1l-8.2,2.5c1.4,5.6,7.2,8.9,13,8.9
		c6.4,0,12.5-4.2,12.5-10.7C261.7,521.1,246.6,524.9,246.6,520.2z"/>
	<path style="display:inline;" d="M273.8,527.1c0-4.9,3.9-8.2,8.2-8.2c2.7,0,4.5,0.8,6.1,2.2v-9.4c-2-0.8-4.1-1.3-6.6-1.3
		c-9.1,0-17,7-17,16.7s7.9,16.7,17,16.7c2.5,0,4.6-0.4,6.6-1.3v-9.4c-1.6,1.3-3.5,2.2-6.1,2.2C277.7,535.3,273.8,532,273.8,527.1z"
		/>
	<path style="display:inline;" d="M311.8,510.4c-4.2,0-7.3,2-9.2,4.4v-22.9H293v51h9.6v-17.5c0-3.7,2.2-6.5,5.7-6.5
		c3.4,0,5.3,2.4,5.3,5.7V543h9.6v-20.9C323.2,515.2,318.9,510.4,311.8,510.4z"/>
	<path style="display:inline;" d="M344.3,510.4c-9.2,0-17.2,7.1-17.2,16.7s7.9,16.7,17.2,16.7c9.2,0,17.1-7.1,17.1-16.7
		C361.4,517.5,353.6,510.4,344.3,510.4z M344.3,535.5c-4.7,0-8.2-3.6-8.2-8.4c0-4.8,3.5-8.4,8.2-8.4c4.6,0,8.1,3.6,8.1,8.4
		C352.4,531.8,348.9,535.5,344.3,535.5z"/>
	<path style="display:inline;" d="M381.9,510.4c-9.2,0-17.2,7.1-17.2,16.7s7.9,16.7,17.2,16.7c9.2,0,17.1-7.1,17.1-16.7
		C399,517.5,391.1,510.4,381.9,510.4z M381.9,535.5c-4.7,0-8.2-3.6-8.2-8.4c0-4.8,3.5-8.4,8.2-8.4c4.6,0,8.1,3.6,8.1,8.4
		C390,531.8,386.5,535.5,381.9,535.5z"/>
	<rect x="403.1" y="491.9" style="display:inline;" width="9.6" height="51"/>
	<path style="display:inline;fill:#FFD600;" d="M381.7,457.5c3.2,0,6-2.6,6-5.9s-2.7-5.9-6-5.9c-3.2,0-6,2.6-6,5.9
		C375.8,454.9,378.5,457.5,381.7,457.5z"/>
</g>
<g id="wordMark_x5F_W" style="display:none;">
	<path style="display:inline;fill:#FFFFFF;" d="M201.5,463.4c0-17.2-22.6-11.6-22.6-19.9c0-3.2,2.4-5.1,5.5-5.1
		c3.4,0,5.4,2.3,6.3,5.1l9.4-3.5c-2.1-6.2-7.9-10.2-15.3-10.2c-9.5,0-15.8,6.7-15.8,14.4c0,16.7,22.4,10.6,22.4,19.8
		c0,3.9-3,6.4-7.1,6.4c-4.3,0-7.5-3-8.5-7.5l-9.5,3c1.8,8,8.9,13.2,17.7,13.2C193.7,479,201.5,472.4,201.5,463.4z"/>
	<polygon style="display:inline;fill:#FFFFFF;" points="224.4,446.5 218,446.5 218,436.1 208.4,436.1 208.4,446.5 203.6,446.5 
		203.6,454.8 208.4,454.8 208.4,478.3 218,478.3 218,454.8 224.4,454.8 	"/>
	<path style="display:inline;fill:#FFFFFF;" d="M252.3,450.3c-1.9-2.5-5.5-4.6-9.9-4.6c-8.7,0-15.7,7.2-15.7,16.7s7,16.7,15.7,16.7
		c4.4,0,8-2.1,9.9-4.6v3.8h9.6v-31.8h-9.6V450.3z M244.4,470.7c-4.7,0-8.2-3.6-8.2-8.4s3.5-8.4,8.2-8.4c4.6,0,8.1,3.6,8.1,8.4
		S249,470.7,244.4,470.7z"/>
	<path style="display:inline;fill:#FFFFFF;" d="M298.3,478.3v-20.9c0-6.9-4.4-11.7-11.4-11.7c-4.2,0-7.3,2-9.2,4.4v-3.7h-9.6v31.8
		h9.6v-17.5c0-3.7,2.2-6.5,5.7-6.5c3.4,0,5.3,2.4,5.3,5.7v18.2h9.6V478.3z"/>
	<path style="display:inline;fill:#FFFFFF;" d="M307,438.7v7.7h-4.6v8.3h4.6v23.5h9.6v-23.5h7.1v-8.3h-7.1v-7.2
		c0-2.9,1.8-4.4,4.4-4.4c1.1,0,2,0.2,3,0.6v-8.2c-1.2-0.5-2.8-0.8-4.8-0.8C311.9,426.6,307,431.3,307,438.7z"/>
	<path style="display:inline;fill:#FFFFFF;" d="M342.8,479c9.2,0,17.1-7.1,17.1-16.7s-7.9-16.7-17.1-16.7s-17.2,7.1-17.2,16.7
		C325.7,471.9,333.6,479,342.8,479z M342.8,454c4.6,0,8.1,3.6,8.1,8.4c0,4.7-3.5,8.4-8.1,8.4c-4.7,0-8.2-3.6-8.2-8.4
		C334.7,457.6,338.1,454,342.8,454z"/>
	<rect x="364" y="446.5" style="display:inline;fill:#FFFFFF;" width="9.6" height="31.8"/>
	<path style="display:inline;fill:#FFFFFF;" d="M415.3,427.2v23.1c-1.8-2.5-5.4-4.6-9.8-4.6c-8.7,0-15.7,7.2-15.7,16.7
		s7,16.7,15.7,16.7c4.4,0,8-2.1,9.8-4.6v3.8h9.6v-51h-9.6V427.2z M407.4,470.7c-4.6,0-8.1-3.6-8.1-8.4s3.5-8.4,8.1-8.4
		c4.7,0,8.2,3.6,8.2,8.4S412.1,470.7,407.4,470.7z"/>
	<path style="display:inline;fill:#FFFFFF;" d="M208.3,515c-1.8-2.5-5.4-4.6-9.8-4.6c-8.7,0-15.7,7.2-15.7,16.7s7,16.7,15.7,16.7
		c4.4,0,8-2.1,9.8-4.6v3.8h9.6v-51h-9.6V515z M200.4,535.5c-4.6,0-8.1-3.6-8.1-8.4c0-4.8,3.5-8.4,8.1-8.4c4.7,0,8.2,3.6,8.2,8.4
		C208.6,531.8,205.1,535.5,200.4,535.5z"/>
	<path style="display:inline;fill:#FFD600;" d="M227,531.2c-3.5,0-6.2,2.7-6.2,6.1c0,3.5,2.7,6.2,6.2,6.2s6.2-2.7,6.2-6.2
		S230.4,531.2,227,531.2z"/>
	<path style="display:inline;fill:#FFFFFF;" d="M246.6,520.2c0-1.5,1.3-2.6,2.9-2.6c1.8,0,3,1.1,3.5,3l8.3-2.1
		c-1.5-4.9-5.9-8.1-11.7-8.1c-7,0-11.8,4.8-11.8,10.3c0,11.7,15,7.9,15,12.8c0,2-1.6,3-3.5,3c-2.3,0-4.2-1.5-5-4.1l-8.2,2.5
		c1.4,5.6,7.2,8.9,13,8.9c6.4,0,12.5-4.2,12.5-10.7C261.7,521.1,246.6,524.9,246.6,520.2z"/>
	<path style="display:inline;fill:#FFFFFF;" d="M273.8,527.1c0-4.9,3.9-8.2,8.2-8.2c2.7,0,4.5,0.8,6.1,2.2v-9.4
		c-2-0.8-4.1-1.3-6.6-1.3c-9.1,0-17,7-17,16.7s7.9,16.7,17,16.7c2.5,0,4.6-0.4,6.6-1.3v-9.4c-1.6,1.3-3.5,2.2-6.1,2.2
		C277.7,535.3,273.8,532,273.8,527.1z"/>
	<path style="display:inline;fill:#FFFFFF;" d="M311.8,510.4c-4.2,0-7.3,2-9.2,4.4v-22.9H293v51h9.6v-17.5c0-3.7,2.2-6.5,5.7-6.5
		c3.4,0,5.3,2.4,5.3,5.7V543h9.6v-20.9C323.2,515.2,318.9,510.4,311.8,510.4z"/>
	<path style="display:inline;fill:#FFFFFF;" d="M344.3,510.4c-9.2,0-17.2,7.1-17.2,16.7s7.9,16.7,17.2,16.7
		c9.2,0,17.1-7.1,17.1-16.7C361.4,517.5,353.6,510.4,344.3,510.4z M344.3,535.5c-4.7,0-8.2-3.6-8.2-8.4c0-4.8,3.5-8.4,8.2-8.4
		c4.6,0,8.1,3.6,8.1,8.4C352.4,531.8,348.9,535.5,344.3,535.5z"/>
	<path style="display:inline;fill:#FFFFFF;" d="M381.9,510.4c-9.2,0-17.2,7.1-17.2,16.7s7.9,16.7,17.2,16.7
		c9.2,0,17.1-7.1,17.1-16.7C399,517.5,391.1,510.4,381.9,510.4z M381.9,535.5c-4.7,0-8.2-3.6-8.2-8.4c0-4.8,3.5-8.4,8.2-8.4
		c4.6,0,8.1,3.6,8.1,8.4C390,531.8,386.5,535.5,381.9,535.5z"/>
	<rect x="403.1" y="491.9" style="display:inline;fill:#FFFFFF;" width="9.6" height="51"/>
	<path style="display:inline;fill:#FFD600;" d="M381.7,457.5c3.2,0,6-2.6,6-5.9s-2.7-5.9-6-5.9c-3.2,0-6,2.6-6,5.9
		C375.8,454.9,378.5,457.5,381.7,457.5z"/>
</g>
<g id="wordMark_x5F_B_x5F_design" style="display:none;">
	<path style="display:inline;" d="M201.5,463.3c0-17.2-22.6-11.6-22.6-19.9c0-3.2,2.4-5.1,5.5-5.1c3.4,0,5.4,2.3,6.3,5.1l9.4-3.5
		c-2.1-6.2-7.9-10.2-15.3-10.2c-9.5,0-15.8,6.6-15.8,14.4c0,16.7,22.4,10.6,22.4,19.8c0,3.9-3,6.4-7.1,6.4c-4.3,0-7.5-3-8.5-7.5
		l-9.5,3c1.8,8,8.9,13.2,17.7,13.2C193.7,478.8,201.5,472.2,201.5,463.3z"/>
	<polygon style="display:inline;" points="224.4,446.3 218,446.3 218,436 208.4,436 208.4,446.3 203.5,446.3 203.5,454.6 
		208.4,454.6 208.4,478.1 218,478.1 218,454.6 224.4,454.6 	"/>
	<path style="display:inline;" d="M252.2,450.1c-1.9-2.5-5.5-4.6-9.9-4.6c-8.7,0-15.7,7.2-15.7,16.7c0,9.5,7,16.7,15.7,16.7
		c4.4,0,8-2.1,9.9-4.6v3.8h9.6v-31.8h-9.6V450.1z M244.4,470.5c-4.7,0-8.2-3.6-8.2-8.4c0-4.7,3.5-8.4,8.2-8.4c4.6,0,8.1,3.6,8.1,8.4
		C252.5,466.9,249,470.5,244.4,470.5z"/>
	<path style="display:inline;" d="M298.3,478.1v-20.9c0-6.9-4.4-11.7-11.4-11.7c-4.2,0-7.3,2-9.2,4.4v-3.7H268v31.8h9.6v-17.5
		c0-3.7,2.2-6.5,5.7-6.5c3.4,0,5.3,2.4,5.3,5.7v18.2H298.3z"/>
	<path style="display:inline;" d="M307,438.6v7.7h-4.6v8.3h4.6v23.5h9.6v-23.5h7.1v-8.3h-7.1v-7.2c0-2.9,1.8-4.4,4.4-4.4
		c1.1,0,2,0.2,3,0.6v-8.2c-1.2-0.5-2.8-0.8-4.7-0.8C311.8,426.4,307,431.1,307,438.6z"/>
	<path style="display:inline;" d="M342.8,478.8c9.2,0,17.1-7.1,17.1-16.7c0-9.6-7.9-16.7-17.1-16.7c-9.2,0-17.2,7.1-17.2,16.7
		C325.6,471.7,333.5,478.8,342.8,478.8z M342.8,453.8c4.6,0,8.1,3.6,8.1,8.4c0,4.7-3.5,8.4-8.1,8.4c-4.7,0-8.2-3.6-8.2-8.4
		C334.6,457.4,338.1,453.8,342.8,453.8z"/>
	<rect x="364" y="446.3" style="display:inline;" width="9.6" height="31.8"/>
	<path style="display:inline;fill:#FFD600;" d="M381.4,457.4c3.2,0,6-2.6,6-5.9s-2.7-5.9-6-5.9c-3.2,0-6,2.6-6,5.9
		S378.1,457.4,381.4,457.4z"/>
	<path style="display:inline;" d="M415.2,427v23c-1.8-2.5-5.4-4.6-9.8-4.6c-8.7,0-15.7,7.2-15.7,16.7c0,9.5,7,16.7,15.7,16.7
		c4.4,0,8-2.1,9.8-4.6v3.8h9.6v-51H415.2z M407.4,470.5c-4.6,0-8.1-3.6-8.1-8.4c0-4.7,3.5-8.4,8.1-8.4c4.7,0,8.2,3.6,8.2,8.4
		C415.5,466.9,412.1,470.5,407.4,470.5z"/>
	<path style="display:inline;" d="M257.8,510.3c-8.7,0-16.4,7-16.4,16.7c0,9.6,7.7,16.7,16.7,16.7c6.1,0,11.4-2.8,14.4-7.8l-6.8-4.7
		c-1.8,2.8-3.9,4.6-7.7,4.6c-3.7,0-6.8-2.3-7.7-6.2h23.4C274.3,518.5,268.2,510.3,257.8,510.3z M250.6,523.5c1.1-3.4,4-5.4,7.2-5.4
		c4.1,0,6.3,2.7,6.7,5.4H250.6z"/>
	<path style="display:inline;" d="M286.9,520c0-1.5,1.3-2.6,2.8-2.6c1.8,0,3,1.1,3.5,3l8.3-2.1c-1.5-4.9-5.9-8.1-11.7-8.1
		c-7,0-11.8,4.8-11.8,10.3c0,11.7,15,7.9,15,12.8c0,2-1.6,3-3.5,3c-2.3,0-4.2-1.5-5-4.1l-8.2,2.5c1.4,5.6,7.2,8.9,13,8.9
		c6.4,0,12.5-4.2,12.5-10.7C302,521,286.9,524.7,286.9,520z"/>
	<path style="display:inline;fill:#FFD600;" d="M311.8,494.6c-3.2,0-5.8,2.5-5.8,5.7c0,3.2,2.6,5.7,5.8,5.7c3.1,0,5.7-2.5,5.7-5.7
		C317.5,497.1,314.9,494.6,311.8,494.6z"/>
	<rect x="307" y="511" style="display:inline;" width="9.6" height="31.8"/>
	<path style="display:inline;" d="M347,514.8c-1.9-2.5-5.5-4.6-9.9-4.6c-8.7,0-15.7,7.2-15.7,16.7c0,9.5,7,16.7,15.7,16.7
		c4.4,0,8-2.1,9.9-4.6v4.1c0,5.6-3.4,8.5-7.9,8.5c-4.1,0-7.1-2.3-7.5-6.2h-9.5c0.4,8.7,7.9,14.1,16.8,14.1c9.4,0,17.7-6.4,17.7-16.7
		V511H347V514.8z M339.1,535.3c-4.7,0-8.2-3.6-8.2-8.4c0-4.7,3.5-8.4,8.2-8.4c4.6,0,8.1,3.6,8.1,8.4
		C347.2,531.7,343.7,535.3,339.1,535.3z"/>
	<path style="display:inline;" d="M381.6,510.3c-4.2,0-7.3,2-9.2,4.4V511h-9.6v31.8h9.6v-17.5c0-3.7,2.2-6.5,5.7-6.5
		c3.4,0,5.3,2.4,5.3,5.7v18.2h9.6v-20.9C393,515,388.6,510.3,381.6,510.3z"/>
	<path style="display:inline;" d="M227,491.8v23c-1.8-2.5-5.4-4.6-9.8-4.6c-8.7,0-15.7,7.2-15.7,16.7c0,9.5,7,16.7,15.7,16.7
		c4.4,0,8-2.1,9.8-4.6v3.8h9.6v-51H227z M219.1,535.3c-4.6,0-8.1-3.6-8.1-8.4c0-4.7,3.5-8.4,8.1-8.4c4.7,0,8.2,3.6,8.2,8.4
		C227.3,531.7,223.8,535.3,219.1,535.3z"/>
</g>
<g id="wordMark_x5F_W_x5F_design">
	<path style="fill:#FFFFFF;" d="M201.5,463.3c0-17.2-22.6-11.6-22.6-19.9c0-3.2,2.4-5.1,5.5-5.1c3.4,0,5.4,2.3,6.3,5.1l9.4-3.5
		c-2.1-6.2-7.9-10.2-15.3-10.2c-9.5,0-15.8,6.6-15.8,14.4c0,16.7,22.4,10.6,22.4,19.8c0,3.9-3,6.4-7.1,6.4c-4.3,0-7.5-3-8.5-7.5
		l-9.5,3c1.8,8,8.9,13.2,17.7,13.2C193.7,478.8,201.5,472.2,201.5,463.3z"/>
	<polygon style="fill:#FFFFFF;" points="224.4,446.3 218,446.3 218,436 208.4,436 208.4,446.3 203.5,446.3 203.5,454.6 208.4,454.6 
		208.4,478.1 218,478.1 218,454.6 224.4,454.6 	"/>
	<path style="fill:#FFFFFF;" d="M252.2,450.1c-1.9-2.5-5.5-4.6-9.9-4.6c-8.7,0-15.7,7.2-15.7,16.7c0,9.5,7,16.7,15.7,16.7
		c4.4,0,8-2.1,9.9-4.6v3.8h9.6v-31.8h-9.6V450.1z M244.4,470.5c-4.7,0-8.2-3.6-8.2-8.4c0-4.7,3.5-8.4,8.2-8.4c4.6,0,8.1,3.6,8.1,8.4
		C252.5,466.9,249,470.5,244.4,470.5z"/>
	<path style="fill:#FFFFFF;" d="M298.3,478.1v-20.9c0-6.9-4.4-11.7-11.4-11.7c-4.2,0-7.3,2-9.2,4.4v-3.7H268v31.8h9.6v-17.5
		c0-3.7,2.2-6.5,5.7-6.5c3.4,0,5.3,2.4,5.3,5.7v18.2H298.3z"/>
	<path style="fill:#FFFFFF;" d="M307,438.6v7.7h-4.6v8.3h4.6v23.5h9.6v-23.5h7.1v-8.3h-7.1v-7.2c0-2.9,1.8-4.4,4.4-4.4
		c1.1,0,2,0.2,3,0.6v-8.2c-1.2-0.5-2.8-0.8-4.7-0.8C311.8,426.4,307,431.1,307,438.6z"/>
	<path style="fill:#FFFFFF;" d="M342.8,478.8c9.2,0,17.1-7.1,17.1-16.7c0-9.6-7.9-16.7-17.1-16.7c-9.2,0-17.2,7.1-17.2,16.7
		C325.6,471.7,333.5,478.8,342.8,478.8z M342.8,453.8c4.6,0,8.1,3.6,8.1,8.4c0,4.7-3.5,8.4-8.1,8.4c-4.7,0-8.2-3.6-8.2-8.4
		C334.6,457.4,338.1,453.8,342.8,453.8z"/>
	<rect x="364" y="446.3" style="fill:#FFFFFF;" width="9.6" height="31.8"/>
	<path style="fill:#FFD600;" d="M381.4,457.4c3.2,0,6-2.6,6-5.9s-2.7-5.9-6-5.9c-3.2,0-6,2.6-6,5.9S378.1,457.4,381.4,457.4z"/>
	<path style="fill:#FFFFFF;" d="M415.2,427v23c-1.8-2.5-5.4-4.6-9.8-4.6c-8.7,0-15.7,7.2-15.7,16.7c0,9.5,7,16.7,15.7,16.7
		c4.4,0,8-2.1,9.8-4.6v3.8h9.6v-51H415.2z M407.4,470.5c-4.6,0-8.1-3.6-8.1-8.4c0-4.7,3.5-8.4,8.1-8.4c4.7,0,8.2,3.6,8.2,8.4
		C415.5,466.9,412.1,470.5,407.4,470.5z"/>
	<path style="fill:#FFFFFF;" d="M257.8,510.3c-8.7,0-16.4,7-16.4,16.7c0,9.6,7.7,16.7,16.7,16.7c6.1,0,11.4-2.8,14.4-7.8l-6.8-4.7
		c-1.8,2.8-3.9,4.6-7.7,4.6c-3.7,0-6.8-2.3-7.7-6.2h23.4C274.3,518.5,268.2,510.3,257.8,510.3z M250.6,523.5c1.1-3.4,4-5.4,7.2-5.4
		c4.1,0,6.3,2.7,6.7,5.4H250.6z"/>
	<path style="fill:#FFFFFF;" d="M286.9,520c0-1.5,1.3-2.6,2.8-2.6c1.8,0,3,1.1,3.5,3l8.3-2.1c-1.5-4.9-5.9-8.1-11.7-8.1
		c-7,0-11.8,4.8-11.8,10.3c0,11.7,15,7.9,15,12.8c0,2-1.6,3-3.5,3c-2.3,0-4.2-1.5-5-4.1l-8.2,2.5c1.4,5.6,7.2,8.9,13,8.9
		c6.4,0,12.5-4.2,12.5-10.7C302,521,286.9,524.7,286.9,520z"/>
	<path style="fill:#FFD600;" d="M311.8,494.6c-3.2,0-5.8,2.5-5.8,5.7c0,3.2,2.6,5.7,5.8,5.7c3.1,0,5.7-2.5,5.7-5.7
		C317.5,497.1,314.9,494.6,311.8,494.6z"/>
	<rect x="307" y="511" style="fill:#FFFFFF;" width="9.6" height="31.8"/>
	<path style="fill:#FFFFFF;" d="M347,514.8c-1.9-2.5-5.5-4.6-9.9-4.6c-8.7,0-15.7,7.2-15.7,16.7c0,9.5,7,16.7,15.7,16.7
		c4.4,0,8-2.1,9.9-4.6v4.1c0,5.6-3.4,8.5-7.9,8.5c-4.1,0-7.1-2.3-7.5-6.2h-9.5c0.4,8.7,7.9,14.1,16.8,14.1c9.4,0,17.7-6.4,17.7-16.7
		V511H347V514.8z M339.1,535.3c-4.7,0-8.2-3.6-8.2-8.4c0-4.7,3.5-8.4,8.2-8.4c4.6,0,8.1,3.6,8.1,8.4
		C347.2,531.7,343.7,535.3,339.1,535.3z"/>
	<path style="fill:#FFFFFF;" d="M381.6,510.3c-4.2,0-7.3,2-9.2,4.4V511h-9.6v31.8h9.6v-17.5c0-3.7,2.2-6.5,5.7-6.5
		c3.4,0,5.3,2.4,5.3,5.7v18.2h9.6v-20.9C393,515,388.6,510.3,381.6,510.3z"/>
	<path style="fill:#FFFFFF;" d="M227,491.8v23c-1.8-2.5-5.4-4.6-9.8-4.6c-8.7,0-15.7,7.2-15.7,16.7c0,9.5,7,16.7,15.7,16.7
		c4.4,0,8-2.1,9.8-4.6v3.8h9.6v-51H227z M219.1,535.3c-4.6,0-8.1-3.6-8.1-8.4c0-4.7,3.5-8.4,8.1-8.4c4.7,0,8.2,3.6,8.2,8.4
		C227.3,531.7,223.8,535.3,219.1,535.3z"/>
</g>
</svg>
