<?xml version="1.0" encoding="utf-8"?>
<!-- Generator: Adobe Illustrator 28.4.1, SVG Export Plug-In . SVG Version: 6.00 Build 0)  -->
<svg version="1.0" xmlns="http://www.w3.org/2000/svg" xmlns:xlink="http://www.w3.org/1999/xlink" x="0px" y="0px"
	 viewBox="0 0 591.1 591.1" style="enable-background:new 0 0 591.1 591.1;" xml:space="preserve">
<g id="material">
</g>
<g id="wordMark_x5F_B" style="display:none;">
	<path style="display:inline;" d="M201.5,463.4c0-17.2-22.6-11.6-22.6-19.9c0-3.2,2.4-5.1,5.5-5.1c3.4,0,5.4,2.3,6.3,5.1l9.4-3.5
		c-2.1-6.2-7.9-10.2-15.3-10.2c-9.5,0-15.8,6.7-15.8,14.4c0,16.7,22.4,10.6,22.4,19.8c0,3.9-3,6.4-7.1,6.4c-4.3,0-7.5-3-8.5-7.5
		l-9.5,3c1.8,8,8.9,13.2,17.7,13.2C193.7,479,201.5,472.4,201.5,463.4z"/>
	<polygon style="display:inline;" points="224.4,446.5 218,446.5 218,436.1 208.4,436.1 208.4,446.5 203.6,446.5 203.6,454.8 
		208.4,454.8 208.4,478.3 218,478.3 218,454.8 224.4,454.8 	"/>
	<path style="display:inline;" d="M252.3,450.3c-1.9-2.5-5.5-4.6-9.9-4.6c-8.7,0-15.7,7.2-15.7,16.7s7,16.7,15.7,16.7
		c4.4,0,8-2.1,9.9-4.6v3.8h9.6v-31.8h-9.6V450.3z M244.4,470.7c-4.7,0-8.2-3.6-8.2-8.4s3.5-8.4,8.2-8.4c4.6,0,8.1,3.6,8.1,8.4
		S249,470.7,244.4,470.7z"/>
	<path style="display:inline;" d="M298.3,478.3v-20.9c0-6.9-4.4-11.7-11.4-11.7c-4.2,0-7.3,2-9.2,4.4v-3.7h-9.6v31.8h9.6v-17.5
		c0-3.7,2.2-6.5,5.7-6.5c3.4,0,5.3,2.4,5.3,5.7v18.2h9.6V478.3z"/>
	<path style="display:inline;" d="M307,438.7v7.7h-4.6v8.3h4.6v23.5h9.6v-23.5h7.1v-8.3h-7.1v-7.2c0-2.9,1.8-4.4,4.4-4.4
		c1.1,0,2,0.2,3,0.6v-8.2c-1.2-0.5-2.8-0.8-4.8-0.8C311.9,426.6,307,431.3,307,438.7z"/>
	<path style="display:inline;" d="M342.8,479c9.2,0,17.1-7.1,17.1-16.7s-7.9-16.7-17.1-16.7s-17.2,7.1-17.2,16.7
		C325.7,471.9,333.6,479,342.8,479z M342.8,454c4.6,0,8.1,3.6,8.1,8.4c0,4.7-3.5,8.4-8.1,8.4c-4.7,0-8.2-3.6-8.2-8.4
		C334.7,457.6,338.1,454,342.8,454z"/>
	<rect x="364" y="446.5" style="display:inline;" width="9.6" height="31.8"/>
	<path style="display:inline;" d="M415.3,427.2v23.1c-1.8-2.5-5.4-4.6-9.8-4.6c-8.7,0-15.7,7.2-15.7,16.7s7,16.7,15.7,16.7
		c4.4,0,8-2.1,9.8-4.6v3.8h9.6v-51h-9.6V427.2z M407.4,470.7c-4.6,0-8.1-3.6-8.1-8.4s3.5-8.4,8.1-8.4c4.7,0,8.2,3.6,8.2,8.4
		S412.1,470.7,407.4,470.7z"/>
	<path style="display:inline;" d="M208.3,515c-1.8-2.5-5.4-4.6-9.8-4.6c-8.7,0-15.7,7.2-15.7,16.7s7,16.7,15.7,16.7
		c4.4,0,8-2.1,9.8-4.6v3.8h9.6v-51h-9.6V515z M200.4,535.5c-4.6,0-8.1-3.6-8.1-8.4c0-4.8,3.5-8.4,8.1-8.4c4.7,0,8.2,3.6,8.2,8.4
		C208.6,531.8,205.1,535.5,200.4,535.5z"/>
	<path style="display:inline;fill:#9C6BFF;" d="M227,531.2c-3.5,0-6.2,2.7-6.2,6.1c0,3.5,2.7,6.2,6.2,6.2s6.2-2.7,6.2-6.2
		S230.4,531.2,227,531.2z"/>
	<path style="display:inline;" d="M246.6,520.2c0-1.5,1.3-2.6,2.9-2.6c1.8,0,3,1.1,3.5,3l8.3-2.1c-1.5-4.9-5.9-8.1-11.7-8.1
		c-7,0-11.8,4.8-11.8,10.3c0,11.7,15,7.9,15,12.8c0,2-1.6,3-3.5,3c-2.3,0-4.2-1.5-5-4.1l-8.2,2.5c1.4,5.6,7.2,8.9,13,8.9
		c6.4,0,12.5-4.2,12.5-10.7C261.7,521.1,246.6,524.9,246.6,520.2z"/>
	<path style="display:inline;" d="M273.8,527.1c0-4.9,3.9-8.2,8.2-8.2c2.7,0,4.5,0.8,6.1,2.2v-9.4c-2-0.8-4.1-1.3-6.6-1.3
		c-9.1,0-17,7-17,16.7s7.9,16.7,17,16.7c2.5,0,4.6-0.4,6.6-1.3v-9.4c-1.6,1.3-3.5,2.2-6.1,2.2C277.7,535.3,273.8,532,273.8,527.1z"
		/>
	<path style="display:inline;" d="M311.8,510.4c-4.2,0-7.3,2-9.2,4.4v-22.9H293v51h9.6v-17.5c0-3.7,2.2-6.5,5.7-6.5
		c3.4,0,5.3,2.4,5.3,5.7V543h9.6v-20.9C323.2,515.2,318.9,510.4,311.8,510.4z"/>
	<path style="display:inline;" d="M344.3,510.4c-9.2,0-17.2,7.1-17.2,16.7s7.9,16.7,17.2,16.7c9.2,0,17.1-7.1,17.1-16.7
		C361.4,517.5,353.6,510.4,344.3,510.4z M344.3,535.5c-4.7,0-8.2-3.6-8.2-8.4c0-4.8,3.5-8.4,8.2-8.4c4.6,0,8.1,3.6,8.1,8.4
		C352.4,531.8,348.9,535.5,344.3,535.5z"/>
	<path style="display:inline;" d="M381.9,510.4c-9.2,0-17.2,7.1-17.2,16.7s7.9,16.7,17.2,16.7c9.2,0,17.1-7.1,17.1-16.7
		C399,517.5,391.1,510.4,381.9,510.4z M381.9,535.5c-4.7,0-8.2-3.6-8.2-8.4c0-4.8,3.5-8.4,8.2-8.4c4.6,0,8.1,3.6,8.1,8.4
		C390,531.8,386.5,535.5,381.9,535.5z"/>
	<rect x="403.1" y="491.9" style="display:inline;" width="9.6" height="51"/>
	<path style="display:inline;fill:#9C6BFF;" d="M381.7,457.5c3.2,0,6-2.6,6-5.9s-2.7-5.9-6-5.9c-3.2,0-6,2.6-6,5.9
		C375.8,454.9,378.5,457.5,381.7,457.5z"/>
</g>
<g id="wordMark_x5F_W" style="display:none;">
	<path style="display:inline;fill:#FFFFFF;" d="M201.5,463.4c0-17.2-22.6-11.6-22.6-19.9c0-3.2,2.4-5.1,5.5-5.1
		c3.4,0,5.4,2.3,6.3,5.1l9.4-3.5c-2.1-6.2-7.9-10.2-15.3-10.2c-9.5,0-15.8,6.7-15.8,14.4c0,16.7,22.4,10.6,22.4,19.8
		c0,3.9-3,6.4-7.1,6.4c-4.3,0-7.5-3-8.5-7.5l-9.5,3c1.8,8,8.9,13.2,17.7,13.2C193.7,479,201.5,472.4,201.5,463.4z"/>
	<polygon style="display:inline;fill:#FFFFFF;" points="224.4,446.5 218,446.5 218,436.1 208.4,436.1 208.4,446.5 203.6,446.5 
		203.6,454.8 208.4,454.8 208.4,478.3 218,478.3 218,454.8 224.4,454.8 	"/>
	<path style="display:inline;fill:#FFFFFF;" d="M252.3,450.3c-1.9-2.5-5.5-4.6-9.9-4.6c-8.7,0-15.7,7.2-15.7,16.7s7,16.7,15.7,16.7
		c4.4,0,8-2.1,9.9-4.6v3.8h9.6v-31.8h-9.6V450.3z M244.4,470.7c-4.7,0-8.2-3.6-8.2-8.4s3.5-8.4,8.2-8.4c4.6,0,8.1,3.6,8.1,8.4
		S249,470.7,244.4,470.7z"/>
	<path style="display:inline;fill:#FFFFFF;" d="M298.3,478.3v-20.9c0-6.9-4.4-11.7-11.4-11.7c-4.2,0-7.3,2-9.2,4.4v-3.7h-9.6v31.8
		h9.6v-17.5c0-3.7,2.2-6.5,5.7-6.5c3.4,0,5.3,2.4,5.3,5.7v18.2h9.6V478.3z"/>
	<path style="display:inline;fill:#FFFFFF;" d="M307,438.7v7.7h-4.6v8.3h4.6v23.5h9.6v-23.5h7.1v-8.3h-7.1v-7.2
		c0-2.9,1.8-4.4,4.4-4.4c1.1,0,2,0.2,3,0.6v-8.2c-1.2-0.5-2.8-0.8-4.8-0.8C311.9,426.6,307,431.3,307,438.7z"/>
	<path style="display:inline;fill:#FFFFFF;" d="M342.8,479c9.2,0,17.1-7.1,17.1-16.7s-7.9-16.7-17.1-16.7s-17.2,7.1-17.2,16.7
		C325.7,471.9,333.6,479,342.8,479z M342.8,454c4.6,0,8.1,3.6,8.1,8.4c0,4.7-3.5,8.4-8.1,8.4c-4.7,0-8.2-3.6-8.2-8.4
		C334.7,457.6,338.1,454,342.8,454z"/>
	<rect x="364" y="446.5" style="display:inline;fill:#FFFFFF;" width="9.6" height="31.8"/>
	<path style="display:inline;fill:#FFFFFF;" d="M415.3,427.2v23.1c-1.8-2.5-5.4-4.6-9.8-4.6c-8.7,0-15.7,7.2-15.7,16.7
		s7,16.7,15.7,16.7c4.4,0,8-2.1,9.8-4.6v3.8h9.6v-51h-9.6V427.2z M407.4,470.7c-4.6,0-8.1-3.6-8.1-8.4s3.5-8.4,8.1-8.4
		c4.7,0,8.2,3.6,8.2,8.4S412.1,470.7,407.4,470.7z"/>
	<path style="display:inline;fill:#FFFFFF;" d="M208.3,515c-1.8-2.5-5.4-4.6-9.8-4.6c-8.7,0-15.7,7.2-15.7,16.7s7,16.7,15.7,16.7
		c4.4,0,8-2.1,9.8-4.6v3.8h9.6v-51h-9.6V515z M200.4,535.5c-4.6,0-8.1-3.6-8.1-8.4c0-4.8,3.5-8.4,8.1-8.4c4.7,0,8.2,3.6,8.2,8.4
		C208.6,531.8,205.1,535.5,200.4,535.5z"/>
	<path style="display:inline;fill:#9C6BFF;" d="M227,531.2c-3.5,0-6.2,2.7-6.2,6.1c0,3.5,2.7,6.2,6.2,6.2s6.2-2.7,6.2-6.2
		S230.4,531.2,227,531.2z"/>
	<path style="display:inline;fill:#FFFFFF;" d="M246.6,520.2c0-1.5,1.3-2.6,2.9-2.6c1.8,0,3,1.1,3.5,3l8.3-2.1
		c-1.5-4.9-5.9-8.1-11.7-8.1c-7,0-11.8,4.8-11.8,10.3c0,11.7,15,7.9,15,12.8c0,2-1.6,3-3.5,3c-2.3,0-4.2-1.5-5-4.1l-8.2,2.5
		c1.4,5.6,7.2,8.9,13,8.9c6.4,0,12.5-4.2,12.5-10.7C261.7,521.1,246.6,524.9,246.6,520.2z"/>
	<path style="display:inline;fill:#FFFFFF;" d="M273.8,527.1c0-4.9,3.9-8.2,8.2-8.2c2.7,0,4.5,0.8,6.1,2.2v-9.4
		c-2-0.8-4.1-1.3-6.6-1.3c-9.1,0-17,7-17,16.7s7.9,16.7,17,16.7c2.5,0,4.6-0.4,6.6-1.3v-9.4c-1.6,1.3-3.5,2.2-6.1,2.2
		C277.7,535.3,273.8,532,273.8,527.1z"/>
	<path style="display:inline;fill:#FFFFFF;" d="M311.8,510.4c-4.2,0-7.3,2-9.2,4.4v-22.9H293v51h9.6v-17.5c0-3.7,2.2-6.5,5.7-6.5
		c3.4,0,5.3,2.4,5.3,5.7V543h9.6v-20.9C323.2,515.2,318.9,510.4,311.8,510.4z"/>
	<path style="display:inline;fill:#FFFFFF;" d="M344.3,510.4c-9.2,0-17.2,7.1-17.2,16.7s7.9,16.7,17.2,16.7
		c9.2,0,17.1-7.1,17.1-16.7C361.4,517.5,353.6,510.4,344.3,510.4z M344.3,535.5c-4.7,0-8.2-3.6-8.2-8.4c0-4.8,3.5-8.4,8.2-8.4
		c4.6,0,8.1,3.6,8.1,8.4C352.4,531.8,348.9,535.5,344.3,535.5z"/>
	<path style="display:inline;fill:#FFFFFF;" d="M381.9,510.4c-9.2,0-17.2,7.1-17.2,16.7s7.9,16.7,17.2,16.7
		c9.2,0,17.1-7.1,17.1-16.7C399,517.5,391.1,510.4,381.9,510.4z M381.9,535.5c-4.7,0-8.2-3.6-8.2-8.4c0-4.8,3.5-8.4,8.2-8.4
		c4.6,0,8.1,3.6,8.1,8.4C390,531.8,386.5,535.5,381.9,535.5z"/>
	<rect x="403.1" y="491.9" style="display:inline;fill:#FFFFFF;" width="9.6" height="51"/>
	<path style="display:inline;fill:#9C6BFF;" d="M381.7,457.5c3.2,0,6-2.6,6-5.9s-2.7-5.9-6-5.9c-3.2,0-6,2.6-6,5.9
		C375.8,454.9,378.5,457.5,381.7,457.5z"/>
</g>
<g id="wordMarkHasso_x5F_B" style="display:none;">
	<polygon style="display:inline;" points="171.4,466.1 171.4,431.7 164.1,431.7 164.1,445.3 150.1,445.3 150.1,431.7 142.8,431.7 
		142.8,466.1 150.1,466.1 150.1,451.4 164.1,451.4 164.1,466.1 	"/>
	<path style="display:inline;" d="M200.2,466.1v-22.9h-6.9v2.7c-1.4-1.8-4-3.3-7.1-3.3c-6.3,0-11.3,5.2-11.3,12
		c0,6.9,5.1,12,11.3,12c3.2,0,5.8-1.5,7.1-3.3v2.7L200.2,466.1L200.2,466.1z M187.6,460.7c-3.4,0-5.9-2.6-5.9-6s2.5-6,5.9-6
		c3.3,0,5.8,2.6,5.8,6C193.5,458.1,191,460.7,187.6,460.7z"/>
	<path style="display:inline;" d="M212.7,461.4c-1.6,0-3.1-1.1-3.6-3l-5.9,1.8c1,4.1,5.2,6.4,9.4,6.4c4.6,0,9-3,9-7.7
		c0-8.6-10.9-5.9-10.9-9.3c0-1.1,0.9-1.9,2.1-1.9c1.3,0,2.2,0.8,2.6,2.2l6-1.5c-1.1-3.6-4.2-5.8-8.4-5.8c-5.1,0-8.5,3.5-8.5,7.4
		c0,8.4,10.8,5.7,10.8,9.2C215.2,460.7,214,461.4,212.7,461.4z"/>
	<path style="display:inline;" d="M232.3,461.4c-1.6,0-3.1-1.1-3.6-3l-5.9,1.8c1,4.1,5.2,6.4,9.4,6.4c4.6,0,9-3,9-7.7
		c0-8.6-10.9-5.9-10.9-9.3c0-1.1,0.9-1.9,2.1-1.9c1.3,0,2.2,0.8,2.6,2.2l6-1.5c-1.1-3.6-4.2-5.8-8.4-5.8c-5.1,0-8.5,3.5-8.5,7.4
		c0,8.4,10.8,5.7,10.8,9.2C234.8,460.7,233.7,461.4,232.3,461.4z"/>
	<path style="display:inline;" d="M255.7,466.7c6.7,0,12.3-5.1,12.3-12s-5.7-12-12.3-12c-6.7,0-12.4,5.1-12.4,12
		C243.4,461.5,249.1,466.7,255.7,466.7z M255.7,448.6c3.3,0,5.8,2.6,5.8,6s-2.5,6-5.8,6c-3.4,0-5.9-2.6-5.9-6
		C249.8,451.2,252.4,448.6,255.7,448.6z"/>
	<path style="display:inline;" d="M289.9,453.4h3.2c7.4,0,12.7-4.1,12.7-10.8c0-6.8-5.3-10.9-12.7-10.9h-10.5v34.4h7.4v-12.7H289.9z
		 M289.9,437.7h3c3.2,0,5.6,1.6,5.6,4.8c0,3.2-2.3,4.8-5.6,4.8h-3V437.7z"/>
	<rect x="309.3" y="429.3" style="display:inline;" width="6.9" height="36.8"/>
	<path style="display:inline;" d="M345.5,466.1v-22.9h-6.9v2.7c-1.4-1.8-4-3.3-7.1-3.3c-6.3,0-11.3,5.2-11.3,12
		c0,6.9,5.1,12,11.3,12c3.2,0,5.8-1.5,7.1-3.3v2.7L345.5,466.1L345.5,466.1z M332.9,460.7c-3.4,0-5.9-2.6-5.9-6s2.5-6,5.9-6
		c3.3,0,5.8,2.6,5.8,6S336.2,460.7,332.9,460.7z"/>
	<polygon style="display:inline;" points="378.4,443.2 373.8,443.2 373.8,435.7 366.9,435.7 366.9,443.2 359.4,443.2 359.4,435.7 
		352.4,435.7 352.4,443.2 348.9,443.2 348.9,449.2 352.4,449.2 352.4,466.1 359.4,466.1 359.4,449.2 366.9,449.2 366.9,466.1 
		373.8,466.1 373.8,449.2 378.4,449.2 	"/>
	<path style="display:inline;" d="M388.5,453.5c0-2.7,1.6-4.7,4.1-4.7s3.8,1.7,3.8,4.1v13.2h6.9V451c0-5-3.2-8.4-8.2-8.4
		c-3,0-5.3,1.4-6.7,3.2v-2.6h-6.9v22.9h6.9v-12.6H388.5z"/>
	<path style="display:inline;" d="M418.7,442.6c-6.3,0-11.8,5.1-11.8,12s5.5,12,12,12c4.4,0,8.2-2,10.4-5.6l-4.9-3.4
		c-1.3,2.1-2.8,3.3-5.5,3.3c-2.6,0-4.9-1.6-5.6-4.5h16.9C430.6,448.6,426.2,442.6,418.7,442.6z M413.6,452.2
		c0.8-2.5,2.9-3.9,5.2-3.9c3,0,4.5,2,4.8,3.9H413.6z"/>
	<rect x="434.1" y="443.2" style="display:inline;" width="6.9" height="22.9"/>
	<path style="display:inline;fill:#9C6BFF;" d="M446.6,451.2c2.3,0,4.3-1.9,4.3-4.2c0-2.4-2-4.2-4.3-4.2s-4.3,1.9-4.3,4.2
		C442.3,449.3,444.3,451.2,446.6,451.2z"/>
	<rect x="107.4" y="482.2" style="display:inline;" width="7.4" height="34.4"/>
	<path style="display:inline;" d="M133.4,493.2c-3,0-5.3,1.4-6.7,3.2v-2.6h-6.9v22.9h6.9v-12.6c0-2.7,1.6-4.7,4.1-4.7
		s3.8,1.7,3.8,4.1v13.2h6.9v-15.1C141.6,496.6,138.4,493.2,133.4,493.2z"/>
	<path style="display:inline;" d="M152,500.2c0-1.1,0.9-1.9,2.1-1.9c1.3,0,2.2,0.8,2.6,2.2l6-1.5c-1.1-3.6-4.2-5.8-8.4-5.8
		c-5.1,0-8.5,3.5-8.5,7.4c0,8.4,10.8,5.7,10.8,9.2c0,1.4-1.1,2.1-2.5,2.1c-1.6,0-3.1-1.1-3.6-3l-5.9,1.8c1,4.1,5.2,6.4,9.4,6.4
		c4.6,0,9-3,9-7.7C162.9,500.9,152,503.6,152,500.2z"/>
	<polygon style="display:inline;" points="175,486.3 168.1,486.3 168.1,493.7 164.6,493.7 164.6,499.7 168.1,499.7 168.1,516.7 
		175,516.7 175,499.7 179.6,499.7 179.6,493.7 175,493.7 	"/>
	<path style="display:inline;" d="M186.3,481.9c-2.3,0-4.2,1.8-4.2,4.1c0,2.3,1.9,4.1,4.2,4.1c2.2,0,4.1-1.8,4.1-4.1
		C190.4,483.7,188.5,481.9,186.3,481.9z"/>
	<rect x="182.8" y="493.7" style="display:inline;" width="6.9" height="22.9"/>
	<polygon style="display:inline;" points="203.6,486.3 196.7,486.3 196.7,493.7 193.2,493.7 193.2,499.7 196.7,499.7 196.7,516.7 
		203.6,516.7 203.6,499.7 208.2,499.7 208.2,493.7 203.6,493.7 	"/>
	<path style="display:inline;" d="M225.3,507c0,2.7-1.4,4.3-3.7,4.3c-2.4,0-3.7-1.6-3.7-4.3v-13.2h-7v13.4c0,5.9,4.5,10,10.7,10
		s10.6-4.1,10.6-10v-13.5h-6.9L225.3,507L225.3,507z"/>
	<polygon style="display:inline;" points="245.7,486.3 238.8,486.3 238.8,493.7 235.3,493.7 235.3,499.7 238.8,499.7 238.8,516.7 
		245.7,516.7 245.7,499.7 250.3,499.7 250.3,493.7 245.7,493.7 	"/>
	<path style="display:inline;" d="M263.8,493.2c-6.3,0-11.8,5.1-11.8,12c0,6.9,5.5,12,12,12c4.4,0,8.2-2,10.4-5.6l-4.9-3.4
		c-1.3,2.1-2.8,3.3-5.5,3.3c-2.6,0-4.9-1.6-5.6-4.5h16.9C275.7,499.1,271.3,493.2,263.8,493.2z M258.6,502.7
		c0.8-2.5,2.9-3.9,5.2-3.9c3,0,4.5,2,4.8,3.9H258.6z"/>
	<path style="display:inline;" d="M300.2,493.2c-6.7,0-12.4,5.1-12.4,12c0,6.9,5.7,12,12.4,12c6.7,0,12.3-5.1,12.3-12
		C312.5,498.3,306.9,493.2,300.2,493.2z M300.2,511.2c-3.4,0-5.9-2.6-5.9-6s2.5-6,5.9-6c3.3,0,5.8,2.6,5.8,6
		C306,508.6,303.5,511.2,300.2,511.2z"/>
	<path style="display:inline;" d="M317.9,488.2v5.6h-3.3v6h3.3v16.9h6.9v-16.9h5.1v-6h-5v-5.2c0-2.1,1.3-3.2,3.2-3.2
		c0.8,0,1.5,0.1,2.1,0.5V480c-0.9-0.4-2-0.5-3.4-0.5C321.4,479.4,317.9,482.8,317.9,488.2z"/>
	<path style="display:inline;" d="M354.9,482.2H344v34.4h10.9c10.2,0,18.2-7.3,18.2-17.2S365.1,482.2,354.9,482.2z M354.4,510.5
		h-3.1v-22.2h3.1c6.6,0,11.2,4.8,11.2,11.1S361.1,510.5,354.4,510.5z"/>
	<path style="display:inline;" d="M387.4,493.2c-6.3,0-11.8,5.1-11.8,12c0,6.9,5.5,12,12,12c4.4,0,8.2-2,10.4-5.6l-4.9-3.4
		c-1.3,2.1-2.8,3.3-5.5,3.3c-2.6,0-4.9-1.6-5.6-4.5h16.9C399.3,499.1,394.9,493.2,387.4,493.2z M382.2,502.7
		c0.8-2.5,2.9-3.9,5.2-3.9c3,0,4.5,2,4.8,3.9H382.2z"/>
	<path style="display:inline;" d="M407.9,500.2c0-1.1,0.9-1.9,2.1-1.9c1.3,0,2.2,0.8,2.6,2.2l6-1.5c-1.1-3.6-4.2-5.8-8.4-5.8
		c-5.1,0-8.5,3.5-8.5,7.4c0,8.4,10.8,5.7,10.8,9.2c0,1.4-1.1,2.1-2.5,2.1c-1.6,0-3.1-1.1-3.6-3l-5.9,1.8c1,4.1,5.2,6.4,9.4,6.4
		c4.6,0,9-3,9-7.7C418.8,500.9,407.9,503.6,407.9,500.2z"/>
	<path style="display:inline;" d="M425.9,481.9c-2.3,0-4.2,1.8-4.2,4.1c0,2.3,1.9,4.1,4.2,4.1c2.2,0,4.1-1.8,4.1-4.1
		C430,483.7,428.1,481.9,425.9,481.9z"/>
	<rect x="422.4" y="493.7" style="display:inline;" width="6.9" height="22.9"/>
	<path style="display:inline;" d="M450.7,496.5c-1.4-1.8-4-3.3-7.1-3.3c-6.3,0-11.3,5.2-11.3,12c0,6.9,5.1,12,11.3,12
		c3.2,0,5.8-1.5,7.1-3.3v2.9c0,4-2.5,6.1-5.7,6.1c-3,0-5.1-1.7-5.4-4.5h-6.9c0.3,6.3,5.7,10.1,12.1,10.1c6.8,0,12.7-4.6,12.7-12.1
		v-22.8h-6.9L450.7,496.5L450.7,496.5z M445,511.2c-3.4,0-5.9-2.6-5.9-6s2.5-6,5.9-6c3.3,0,5.8,2.6,5.8,6
		C450.9,508.6,448.4,511.2,445,511.2z"/>
	<path style="display:inline;" d="M475.7,493.2c-3,0-5.3,1.4-6.7,3.2v-2.6h-6.9v22.9h6.9v-12.6c0-2.7,1.6-4.7,4.1-4.7
		s3.8,1.7,3.8,4.1v13.2h6.9v-15.1C483.9,496.6,480.8,493.2,475.7,493.2z"/>
	<path style="display:inline;" d="M248.2,556.5c0-12.4-16.3-8.4-16.3-14.4c0-2.3,1.7-3.7,4-3.7c2.4,0,3.9,1.7,4.6,3.7l6.8-2.5
		c-1.5-4.5-5.7-7.4-11.1-7.4c-6.9,0-11.4,4.8-11.4,10.4c0,12.1,16.2,7.7,16.2,14.2c0,2.8-2.2,4.6-5.1,4.6c-3.1,0-5.4-2.1-6.2-5.4
		l-6.9,2.2c1.3,5.8,6.4,9.5,12.8,9.5C242.5,567.8,248.2,563,248.2,556.5z"/>
	<polygon style="display:inline;" points="264.7,544.3 260.1,544.3 260.1,536.9 253.1,536.9 253.1,544.3 249.6,544.3 249.6,550.3 
		253.1,550.3 253.1,567.2 260.1,567.2 260.1,550.3 264.7,550.3 	"/>
	<path style="display:inline;" d="M284.8,547c-1.4-1.8-4-3.3-7.1-3.3c-6.3,0-11.3,5.2-11.3,12c0,6.9,5.1,12,11.3,12
		c3.2,0,5.8-1.5,7.1-3.3v2.7h6.9v-22.9h-6.9V547z M279.1,561.8c-3.4,0-5.9-2.6-5.9-6s2.5-6,5.9-6c3.3,0,5.8,2.6,5.8,6
		S282.4,561.8,279.1,561.8z"/>
	<polygon style="display:inline;" points="210.3,544.3 205.7,544.3 205.7,536.9 198.8,536.9 198.8,544.3 195.3,544.3 195.3,550.3 
		198.8,550.3 198.8,567.2 205.7,567.2 205.7,550.3 210.3,550.3 	"/>
	<path style="display:inline;" d="M185.4,547c-1.4-1.8-4-3.3-7.1-3.3c-6.3,0-11.3,5.2-11.3,12c0,6.9,5.1,12,11.3,12
		c3.2,0,5.8-1.5,7.1-3.3v2.7h6.9v-22.9h-6.9V547z M179.7,561.8c-3.4,0-5.9-2.6-5.9-6s2.5-6,5.9-6c3.3,0,5.8,2.6,5.8,6
		C185.6,559.2,183.1,561.8,179.7,561.8z"/>
	<path style="display:inline;" d="M318,567.2v-15.1c0-5-3.2-8.4-8.2-8.4c-3,0-5.3,1.4-6.7,3.2v-2.6h-6.9v22.9h6.9v-12.6
		c0-2.7,1.6-4.7,4.1-4.7s3.8,1.7,3.8,4.1v13.2L318,567.2L318,567.2z"/>
	<path style="display:inline;" d="M324.3,538.7v5.6h-3.4v6h3.3v16.9h6.9v-16.9h5.1v-6h-5.1v-5.2c0-2.1,1.3-3.2,3.2-3.2
		c0.8,0,1.5,0.1,2.1,0.5v-5.9c-0.9-0.4-2-0.5-3.4-0.5C327.7,530,324.3,533.4,324.3,538.7z"/>
	<path style="display:inline;" d="M350.1,567.8c6.7,0,12.3-5.1,12.3-12s-5.7-12-12.3-12c-6.7,0-12.4,5.1-12.4,12
		C337.7,562.7,343.4,567.8,350.1,567.8z M350.1,549.7c3.3,0,5.8,2.6,5.8,6s-2.5,6-5.8,6c-3.4,0-5.9-2.6-5.9-6
		C344.2,552.3,346.7,549.7,350.1,549.7z"/>
	<rect x="365.4" y="544.3" style="display:inline;" width="6.9" height="22.9"/>
	<path style="display:inline;fill:#9C6BFF;" d="M377.9,552.3c2.3,0,4.3-1.9,4.3-4.2s-2-4.2-4.3-4.2s-4.3,1.9-4.3,4.2
		S375.5,552.3,377.9,552.3z"/>
	<path style="display:inline;" d="M402.3,530.4V547c-1.3-1.8-3.9-3.3-7.1-3.3c-6.3,0-11.3,5.2-11.3,12c0,6.9,5.1,12,11.3,12
		c3.2,0,5.8-1.5,7.1-3.3v2.7h6.9v-36.8L402.3,530.4L402.3,530.4z M396.6,561.8c-3.3,0-5.8-2.6-5.8-6s2.5-6,5.8-6
		c3.4,0,5.9,2.6,5.9,6S400,561.8,396.6,561.8z"/>
</g>
<g id="wordMarkHasso_x5F_W">
	<polygon style="fill:#FFFFFF;" points="171.4,466.1 171.4,431.7 164.1,431.7 164.1,445.3 150.1,445.3 150.1,431.7 142.8,431.7 
		142.8,466.1 150.1,466.1 150.1,451.4 164.1,451.4 164.1,466.1 	"/>
	<path style="fill:#FFFFFF;" d="M200.2,466.1v-22.9h-6.9v2.7c-1.4-1.8-4-3.3-7.1-3.3c-6.3,0-11.3,5.2-11.3,12c0,6.9,5.1,12,11.3,12
		c3.2,0,5.8-1.5,7.1-3.3v2.7L200.2,466.1L200.2,466.1z M187.6,460.7c-3.4,0-5.9-2.6-5.9-6s2.5-6,5.9-6c3.3,0,5.8,2.6,5.8,6
		C193.5,458.1,191,460.7,187.6,460.7z"/>
	<path style="fill:#FFFFFF;" d="M212.7,461.4c-1.6,0-3.1-1.1-3.6-3l-5.9,1.8c1,4.1,5.2,6.4,9.4,6.4c4.6,0,9-3,9-7.7
		c0-8.6-10.9-5.9-10.9-9.3c0-1.1,0.9-1.9,2.1-1.9c1.3,0,2.2,0.8,2.6,2.2l6-1.5c-1.1-3.6-4.2-5.8-8.4-5.8c-5.1,0-8.5,3.5-8.5,7.4
		c0,8.4,10.8,5.7,10.8,9.2C215.2,460.7,214,461.4,212.7,461.4z"/>
	<path style="fill:#FFFFFF;" d="M232.3,461.4c-1.6,0-3.1-1.1-3.6-3l-5.9,1.8c1,4.1,5.2,6.4,9.4,6.4c4.6,0,9-3,9-7.7
		c0-8.6-10.9-5.9-10.9-9.3c0-1.1,0.9-1.9,2.1-1.9c1.3,0,2.2,0.8,2.6,2.2l6-1.5c-1.1-3.6-4.2-5.8-8.4-5.8c-5.1,0-8.5,3.5-8.5,7.4
		c0,8.4,10.8,5.7,10.8,9.2C234.8,460.7,233.7,461.4,232.3,461.4z"/>
	<path style="fill:#FFFFFF;" d="M255.7,466.7c6.7,0,12.3-5.1,12.3-12s-5.7-12-12.3-12c-6.7,0-12.4,5.1-12.4,12
		C243.4,461.5,249.1,466.7,255.7,466.7z M255.7,448.6c3.3,0,5.8,2.6,5.8,6s-2.5,6-5.8,6c-3.4,0-5.9-2.6-5.9-6
		C249.8,451.2,252.4,448.6,255.7,448.6z"/>
	<path style="fill:#FFFFFF;" d="M289.9,453.4h3.2c7.4,0,12.7-4.1,12.7-10.8c0-6.8-5.3-10.9-12.7-10.9h-10.5v34.4h7.4v-12.7H289.9z
		 M289.9,437.7h3c3.2,0,5.6,1.6,5.6,4.8c0,3.2-2.3,4.8-5.6,4.8h-3V437.7z"/>
	<rect x="309.3" y="429.3" style="fill:#FFFFFF;" width="6.9" height="36.8"/>
	<path style="fill:#FFFFFF;" d="M345.5,466.1v-22.9h-6.9v2.7c-1.4-1.8-4-3.3-7.1-3.3c-6.3,0-11.3,5.2-11.3,12c0,6.9,5.1,12,11.3,12
		c3.2,0,5.8-1.5,7.1-3.3v2.7L345.5,466.1L345.5,466.1z M332.9,460.7c-3.4,0-5.9-2.6-5.9-6s2.5-6,5.9-6c3.3,0,5.8,2.6,5.8,6
		S336.2,460.7,332.9,460.7z"/>
	<polygon style="fill:#FFFFFF;" points="378.4,443.2 373.8,443.2 373.8,435.7 366.9,435.7 366.9,443.2 359.4,443.2 359.4,435.7 
		352.4,435.7 352.4,443.2 348.9,443.2 348.9,449.2 352.4,449.2 352.4,466.1 359.4,466.1 359.4,449.2 366.9,449.2 366.9,466.1 
		373.8,466.1 373.8,449.2 378.4,449.2 	"/>
	<path style="fill:#FFFFFF;" d="M388.5,453.5c0-2.7,1.6-4.7,4.1-4.7s3.8,1.7,3.8,4.1v13.2h6.9V451c0-5-3.2-8.4-8.2-8.4
		c-3,0-5.3,1.4-6.7,3.2v-2.6h-6.9v22.9h6.9v-12.6H388.5z"/>
	<path style="fill:#FFFFFF;" d="M418.7,442.6c-6.3,0-11.8,5.1-11.8,12s5.5,12,12,12c4.4,0,8.2-2,10.4-5.6l-4.9-3.4
		c-1.3,2.1-2.8,3.3-5.5,3.3c-2.6,0-4.9-1.6-5.6-4.5h16.9C430.6,448.6,426.2,442.6,418.7,442.6z M413.6,452.2
		c0.8-2.5,2.9-3.9,5.2-3.9c3,0,4.5,2,4.8,3.9H413.6z"/>
	<rect x="434.1" y="443.2" style="fill:#FFFFFF;" width="6.9" height="22.9"/>
	<path style="fill:#9C6BFF;" d="M446.6,451.2c2.3,0,4.3-1.9,4.3-4.2c0-2.4-2-4.2-4.3-4.2s-4.3,1.9-4.3,4.2
		C442.3,449.3,444.3,451.2,446.6,451.2z"/>
	<rect x="107.4" y="482.2" style="fill:#FFFFFF;" width="7.4" height="34.4"/>
	<path style="fill:#FFFFFF;" d="M133.4,493.2c-3,0-5.3,1.4-6.7,3.2v-2.6h-6.9v22.9h6.9v-12.6c0-2.7,1.6-4.7,4.1-4.7s3.8,1.7,3.8,4.1
		v13.2h6.9v-15.1C141.6,496.6,138.4,493.2,133.4,493.2z"/>
	<path style="fill:#FFFFFF;" d="M152,500.2c0-1.1,0.9-1.9,2.1-1.9c1.3,0,2.2,0.8,2.6,2.2l6-1.5c-1.1-3.6-4.2-5.8-8.4-5.8
		c-5.1,0-8.5,3.5-8.5,7.4c0,8.4,10.8,5.7,10.8,9.2c0,1.4-1.1,2.1-2.5,2.1c-1.6,0-3.1-1.1-3.6-3l-5.9,1.8c1,4.1,5.2,6.4,9.4,6.4
		c4.6,0,9-3,9-7.7C162.9,500.9,152,503.6,152,500.2z"/>
	<polygon style="fill:#FFFFFF;" points="175,486.3 168.1,486.3 168.1,493.7 164.6,493.7 164.6,499.7 168.1,499.7 168.1,516.7 
		175,516.7 175,499.7 179.6,499.7 179.6,493.7 175,493.7 	"/>
	<path style="fill:#FFFFFF;" d="M186.3,481.9c-2.3,0-4.2,1.8-4.2,4.1c0,2.3,1.9,4.1,4.2,4.1c2.2,0,4.1-1.8,4.1-4.1
		C190.4,483.7,188.5,481.9,186.3,481.9z"/>
	<rect x="182.8" y="493.7" style="fill:#FFFFFF;" width="6.9" height="22.9"/>
	<polygon style="fill:#FFFFFF;" points="203.6,486.3 196.7,486.3 196.7,493.7 193.2,493.7 193.2,499.7 196.7,499.7 196.7,516.7 
		203.6,516.7 203.6,499.7 208.2,499.7 208.2,493.7 203.6,493.7 	"/>
	<path style="fill:#FFFFFF;" d="M225.3,507c0,2.7-1.4,4.3-3.7,4.3c-2.4,0-3.7-1.6-3.7-4.3v-13.2h-7v13.4c0,5.9,4.5,10,10.7,10
		s10.6-4.1,10.6-10v-13.5h-6.9L225.3,507L225.3,507z"/>
	<polygon style="fill:#FFFFFF;" points="245.7,486.3 238.8,486.3 238.8,493.7 235.3,493.7 235.3,499.7 238.8,499.7 238.8,516.7 
		245.7,516.7 245.7,499.7 250.3,499.7 250.3,493.7 245.7,493.7 	"/>
	<path style="fill:#FFFFFF;" d="M263.8,493.2c-6.3,0-11.8,5.1-11.8,12c0,6.9,5.5,12,12,12c4.4,0,8.2-2,10.4-5.6l-4.9-3.4
		c-1.3,2.1-2.8,3.3-5.5,3.3c-2.6,0-4.9-1.6-5.6-4.5h16.9C275.7,499.1,271.3,493.2,263.8,493.2z M258.6,502.7
		c0.8-2.5,2.9-3.9,5.2-3.9c3,0,4.5,2,4.8,3.9H258.6z"/>
	<path style="fill:#FFFFFF;" d="M300.2,493.2c-6.7,0-12.4,5.1-12.4,12c0,6.9,5.7,12,12.4,12c6.7,0,12.3-5.1,12.3-12
		C312.5,498.3,306.9,493.2,300.2,493.2z M300.2,511.2c-3.4,0-5.9-2.6-5.9-6s2.5-6,5.9-6c3.3,0,5.8,2.6,5.8,6
		C306,508.6,303.5,511.2,300.2,511.2z"/>
	<path style="fill:#FFFFFF;" d="M317.9,488.2v5.6h-3.3v6h3.3v16.9h6.9v-16.9h5.1v-6h-5v-5.2c0-2.1,1.3-3.2,3.2-3.2
		c0.8,0,1.5,0.1,2.1,0.5V480c-0.9-0.4-2-0.5-3.4-0.5C321.4,479.4,317.9,482.8,317.9,488.2z"/>
	<path style="fill:#FFFFFF;" d="M354.9,482.2H344v34.4h10.9c10.2,0,18.2-7.3,18.2-17.2S365.1,482.2,354.9,482.2z M354.4,510.5h-3.1
		v-22.2h3.1c6.6,0,11.2,4.8,11.2,11.1S361.1,510.5,354.4,510.5z"/>
	<path style="fill:#FFFFFF;" d="M387.4,493.2c-6.3,0-11.8,5.1-11.8,12c0,6.9,5.5,12,12,12c4.4,0,8.2-2,10.4-5.6l-4.9-3.4
		c-1.3,2.1-2.8,3.3-5.5,3.3c-2.6,0-4.9-1.6-5.6-4.5h16.9C399.3,499.1,394.9,493.2,387.4,493.2z M382.2,502.7
		c0.8-2.5,2.9-3.9,5.2-3.9c3,0,4.5,2,4.8,3.9H382.2z"/>
	<path style="fill:#FFFFFF;" d="M407.9,500.2c0-1.1,0.9-1.9,2.1-1.9c1.3,0,2.2,0.8,2.6,2.2l6-1.5c-1.1-3.6-4.2-5.8-8.4-5.8
		c-5.1,0-8.5,3.5-8.5,7.4c0,8.4,10.8,5.7,10.8,9.2c0,1.4-1.1,2.1-2.5,2.1c-1.6,0-3.1-1.1-3.6-3l-5.9,1.8c1,4.1,5.2,6.4,9.4,6.4
		c4.6,0,9-3,9-7.7C418.8,500.9,407.9,503.6,407.9,500.2z"/>
	<path style="fill:#FFFFFF;" d="M425.9,481.9c-2.3,0-4.2,1.8-4.2,4.1c0,2.3,1.9,4.1,4.2,4.1c2.2,0,4.1-1.8,4.1-4.1
		C430,483.7,428.1,481.9,425.9,481.9z"/>
	<rect x="422.4" y="493.7" style="fill:#FFFFFF;" width="6.9" height="22.9"/>
	<path style="fill:#FFFFFF;" d="M450.7,496.5c-1.4-1.8-4-3.3-7.1-3.3c-6.3,0-11.3,5.2-11.3,12c0,6.9,5.1,12,11.3,12
		c3.2,0,5.8-1.5,7.1-3.3v2.9c0,4-2.5,6.1-5.7,6.1c-3,0-5.1-1.7-5.4-4.5h-6.9c0.3,6.3,5.7,10.1,12.1,10.1c6.8,0,12.7-4.6,12.7-12.1
		v-22.8h-6.9L450.7,496.5L450.7,496.5z M445,511.2c-3.4,0-5.9-2.6-5.9-6s2.5-6,5.9-6c3.3,0,5.8,2.6,5.8,6
		C450.9,508.6,448.4,511.2,445,511.2z"/>
	<path style="fill:#FFFFFF;" d="M475.7,493.2c-3,0-5.3,1.4-6.7,3.2v-2.6h-6.9v22.9h6.9v-12.6c0-2.7,1.6-4.7,4.1-4.7s3.8,1.7,3.8,4.1
		v13.2h6.9v-15.1C483.9,496.6,480.8,493.2,475.7,493.2z"/>
	<path style="fill:#FFFFFF;" d="M248.2,556.5c0-12.4-16.3-8.4-16.3-14.4c0-2.3,1.7-3.7,4-3.7c2.4,0,3.9,1.7,4.6,3.7l6.8-2.5
		c-1.5-4.5-5.7-7.4-11.1-7.4c-6.9,0-11.4,4.8-11.4,10.4c0,12.1,16.2,7.7,16.2,14.2c0,2.8-2.2,4.6-5.1,4.6c-3.1,0-5.4-2.1-6.2-5.4
		l-6.9,2.2c1.3,5.8,6.4,9.5,12.8,9.5C242.5,567.8,248.2,563,248.2,556.5z"/>
	<polygon style="fill:#FFFFFF;" points="264.7,544.3 260.1,544.3 260.1,536.9 253.1,536.9 253.1,544.3 249.6,544.3 249.6,550.3 
		253.1,550.3 253.1,567.2 260.1,567.2 260.1,550.3 264.7,550.3 	"/>
	<path style="fill:#FFFFFF;" d="M284.8,547c-1.4-1.8-4-3.3-7.1-3.3c-6.3,0-11.3,5.2-11.3,12c0,6.9,5.1,12,11.3,12
		c3.2,0,5.8-1.5,7.1-3.3v2.7h6.9v-22.9h-6.9V547z M279.1,561.8c-3.4,0-5.9-2.6-5.9-6s2.5-6,5.9-6c3.3,0,5.8,2.6,5.8,6
		S282.4,561.8,279.1,561.8z"/>
	<polygon style="fill:#FFFFFF;" points="210.3,544.3 205.7,544.3 205.7,536.9 198.8,536.9 198.8,544.3 195.3,544.3 195.3,550.3 
		198.8,550.3 198.8,567.2 205.7,567.2 205.7,550.3 210.3,550.3 	"/>
	<path style="fill:#FFFFFF;" d="M185.4,547c-1.4-1.8-4-3.3-7.1-3.3c-6.3,0-11.3,5.2-11.3,12c0,6.9,5.1,12,11.3,12
		c3.2,0,5.8-1.5,7.1-3.3v2.7h6.9v-22.9h-6.9V547z M179.7,561.8c-3.4,0-5.9-2.6-5.9-6s2.5-6,5.9-6c3.3,0,5.8,2.6,5.8,6
		C185.6,559.2,183.1,561.8,179.7,561.8z"/>
	<path style="fill:#FFFFFF;" d="M318,567.2v-15.1c0-5-3.2-8.4-8.2-8.4c-3,0-5.3,1.4-6.7,3.2v-2.6h-6.9v22.9h6.9v-12.6
		c0-2.7,1.6-4.7,4.1-4.7s3.8,1.7,3.8,4.1v13.2L318,567.2L318,567.2z"/>
	<path style="fill:#FFFFFF;" d="M324.3,538.7v5.6h-3.4v6h3.3v16.9h6.9v-16.9h5.1v-6h-5.1v-5.2c0-2.1,1.3-3.2,3.2-3.2
		c0.8,0,1.5,0.1,2.1,0.5v-5.9c-0.9-0.4-2-0.5-3.4-0.5C327.7,530,324.3,533.4,324.3,538.7z"/>
	<path style="fill:#FFFFFF;" d="M350.1,567.8c6.7,0,12.3-5.1,12.3-12s-5.7-12-12.3-12c-6.7,0-12.4,5.1-12.4,12
		C337.7,562.7,343.4,567.8,350.1,567.8z M350.1,549.7c3.3,0,5.8,2.6,5.8,6s-2.5,6-5.8,6c-3.4,0-5.9-2.6-5.9-6
		C344.2,552.3,346.7,549.7,350.1,549.7z"/>
	<rect x="365.4" y="544.3" style="fill:#FFFFFF;" width="6.9" height="22.9"/>
	<path style="fill:#9C6BFF;" d="M377.9,552.3c2.3,0,4.3-1.9,4.3-4.2s-2-4.2-4.3-4.2s-4.3,1.9-4.3,4.2S375.5,552.3,377.9,552.3z"/>
	<path style="fill:#FFFFFF;" d="M402.3,530.4V547c-1.3-1.8-3.9-3.3-7.1-3.3c-6.3,0-11.3,5.2-11.3,12c0,6.9,5.1,12,11.3,12
		c3.2,0,5.8-1.5,7.1-3.3v2.7h6.9v-36.8L402.3,530.4L402.3,530.4z M396.6,561.8c-3.3,0-5.8-2.6-5.8-6s2.5-6,5.8-6
		c3.4,0,5.9,2.6,5.9,6S400,561.8,396.6,561.8z"/>
</g>
</svg>
