<?xml version="1.0" encoding="utf-8"?>
<!-- Generator: Adobe Illustrator 28.4.1, SVG Export Plug-In . SVG Version: 6.00 Build 0)  -->
<svg version="1.0" id="Layer_1" xmlns="http://www.w3.org/2000/svg" xmlns:xlink="http://www.w3.org/1999/xlink" x="0px" y="0px"
	 viewBox="0 0 591.1 591.1" style="enable-background:new 0 0 591.1 591.1;" xml:space="preserve">
<style type="text/css">
	.st0{fill:#FFFFFF;}
	.st1{fill:#FF0000;}
</style>
<g>
	<path class="st0" d="M193,463.4c0-17.2-22.6-11.6-22.6-19.9c0-3.2,2.4-5.1,5.5-5.1c3.4,0,5.4,2.3,6.3,5.1l9.4-3.5
		c-2.1-6.2-7.9-10.2-15.3-10.2c-9.5,0-15.8,6.7-15.8,14.4c0,16.7,22.4,10.6,22.4,19.8c0,3.9-3,6.4-7.1,6.4c-4.3,0-7.5-3-8.5-7.5
		l-9.5,3c1.8,8,8.9,13.2,17.7,13.2C185.2,479,193,472.4,193,463.4z"/>
	<polygon class="st0" points="215.9,446.5 209.5,446.5 209.5,436.1 199.9,436.1 199.9,446.5 195.1,446.5 195.1,454.8 199.9,454.8 
		199.9,478.3 209.5,478.3 209.5,454.8 215.9,454.8 	"/>
	<path class="st0" d="M243.8,450.3c-1.9-2.5-5.5-4.6-9.9-4.6c-8.7,0-15.7,7.2-15.7,16.7s7,16.7,15.7,16.7c4.4,0,8-2.1,9.9-4.6v3.8
		h9.6v-31.8h-9.6V450.3z M235.9,470.7c-4.7,0-8.2-3.6-8.2-8.4s3.5-8.4,8.2-8.4c4.6,0,8.1,3.6,8.1,8.4S240.5,470.7,235.9,470.7z"/>
	<path class="st0" d="M289.8,478.3v-20.9c0-6.9-4.4-11.7-11.4-11.7c-4.2,0-7.3,2-9.2,4.4v-3.7h-9.6v31.8h9.6v-17.5
		c0-3.7,2.2-6.5,5.7-6.5c3.4,0,5.3,2.4,5.3,5.7v18.2h9.6V478.3z"/>
	<path class="st0" d="M298.5,438.7v7.7h-4.6v8.3h4.6v23.5h9.6v-23.5h7.1v-8.3h-7.1v-7.2c0-2.9,1.8-4.4,4.4-4.4c1.1,0,2,0.2,3,0.6
		v-8.2c-1.2-0.5-2.8-0.8-4.8-0.8C303.4,426.6,298.5,431.3,298.5,438.7z"/>
	<path class="st0" d="M334.3,479c9.2,0,17.1-7.1,17.1-16.7s-7.9-16.7-17.1-16.7s-17.2,7.1-17.2,16.7
		C317.2,471.9,325.1,479,334.3,479z M334.3,454c4.6,0,8.1,3.6,8.1,8.4c0,4.7-3.5,8.4-8.1,8.4c-4.7,0-8.2-3.6-8.2-8.4
		C326.2,457.6,329.6,454,334.3,454z"/>
	<rect x="355.5" y="446.5" class="st0" width="9.6" height="31.8"/>
	<path class="st0" d="M406.8,427.2v23.1c-1.8-2.5-5.4-4.6-9.8-4.6c-8.7,0-15.7,7.2-15.7,16.7s7,16.7,15.7,16.7c4.4,0,8-2.1,9.8-4.6
		v3.8h9.6v-51h-9.6V427.2z M398.9,470.7c-4.6,0-8.1-3.6-8.1-8.4s3.5-8.4,8.1-8.4c4.7,0,8.2,3.6,8.2,8.4S403.6,470.7,398.9,470.7z"/>
	<path class="st0" d="M199.8,515c-1.8-2.5-5.4-4.6-9.8-4.6c-8.7,0-15.7,7.2-15.7,16.7s7,16.7,15.7,16.7c4.4,0,8-2.1,9.8-4.6v3.8h9.6
		v-51h-9.6V515z M191.9,535.5c-4.6,0-8.1-3.6-8.1-8.4c0-4.8,3.5-8.4,8.1-8.4c4.7,0,8.2,3.6,8.2,8.4
		C200.1,531.8,196.6,535.5,191.9,535.5z"/>
	<path class="st1" d="M218.5,531.2c-3.5,0-6.2,2.7-6.2,6.1c0,3.5,2.7,6.2,6.2,6.2s6.2-2.7,6.2-6.2S221.9,531.2,218.5,531.2z"/>
	<path class="st0" d="M238.1,520.2c0-1.5,1.3-2.6,2.9-2.6c1.8,0,3,1.1,3.5,3l8.3-2.1c-1.5-4.9-5.9-8.1-11.7-8.1
		c-7,0-11.8,4.8-11.8,10.3c0,11.7,15,7.9,15,12.8c0,2-1.6,3-3.5,3c-2.3,0-4.2-1.5-5-4.1l-8.2,2.5c1.4,5.6,7.2,8.9,13,8.9
		c6.4,0,12.5-4.2,12.5-10.7C253.2,521.1,238.1,524.9,238.1,520.2z"/>
	<path class="st0" d="M265.3,527.1c0-4.9,3.9-8.2,8.2-8.2c2.7,0,4.5,0.8,6.1,2.2v-9.4c-2-0.8-4.1-1.3-6.6-1.3c-9.1,0-17,7-17,16.7
		s7.9,16.7,17,16.7c2.5,0,4.6-0.4,6.6-1.3v-9.4c-1.6,1.3-3.5,2.2-6.1,2.2C269.2,535.3,265.3,532,265.3,527.1z"/>
	<path class="st0" d="M303.3,510.4c-4.2,0-7.3,2-9.2,4.4v-22.9h-9.6v51h9.6v-17.5c0-3.7,2.2-6.5,5.7-6.5c3.4,0,5.3,2.4,5.3,5.7V543
		h9.6v-20.9C314.7,515.2,310.4,510.4,303.3,510.4z"/>
	<path class="st0" d="M335.8,510.4c-9.2,0-17.2,7.1-17.2,16.7s7.9,16.7,17.2,16.7c9.2,0,17.1-7.1,17.1-16.7
		C352.9,517.5,345.1,510.4,335.8,510.4z M335.8,535.5c-4.7,0-8.2-3.6-8.2-8.4c0-4.8,3.5-8.4,8.2-8.4c4.6,0,8.1,3.6,8.1,8.4
		C343.9,531.8,340.4,535.5,335.8,535.5z"/>
	<path class="st0" d="M373.4,510.4c-9.2,0-17.2,7.1-17.2,16.7s7.9,16.7,17.2,16.7c9.2,0,17.1-7.1,17.1-16.7
		C390.5,517.5,382.6,510.4,373.4,510.4z M373.4,535.5c-4.7,0-8.2-3.6-8.2-8.4c0-4.8,3.5-8.4,8.2-8.4c4.6,0,8.1,3.6,8.1,8.4
		C381.5,531.8,378,535.5,373.4,535.5z"/>
	<rect x="394.6" y="491.9" class="st0" width="9.6" height="51"/>
	<path class="st1" d="M373.2,457.5c3.2,0,6-2.6,6-5.9s-2.7-5.9-6-5.9c-3.2,0-6,2.6-6,5.9C367.3,454.9,370,457.5,373.2,457.5z"/>
</g>
</svg>
